<svg xmlns="http://www.w3.org/2000/svg" xmlns:xlink="http://www.w3.org/1999/xlink" width="500" zoomAndPan="magnify" viewBox="0 0 375 374.999991" height="500" preserveAspectRatio="xMidYMid meet" version="1.0"><defs><clipPath id="e72d39a97e"><path d="M 112.5 154 L 215 154 L 215 261.65625 L 112.5 261.65625 Z M 112.5 154 " clip-rule="nonzero"/></clipPath><clipPath id="5cb59c2fd4"><path d="M 152 113.15625 L 262 113.15625 L 262 223 L 152 223 Z M 152 113.15625 " clip-rule="nonzero"/></clipPath></defs><rect x="-37.5" width="450" fill="#ffffff" y="-37.499999" height="449.999989" fill-opacity="1"/><rect x="-37.5" width="450" fill="#ffffff" y="-37.499999" height="449.999989" fill-opacity="1"/><rect x="-37.5" width="450" fill="#000000" y="-37.499999" height="449.999989" fill-opacity="1"/><g clip-path="url(#e72d39a97e)"><path fill="#fbcf00" d="M 206.578125 173.054688 L 172.148438 156.636719 C 169.835938 155.535156 166.789062 154.984375 163.742188 154.984375 C 160.695312 154.984375 157.648438 155.535156 155.335938 156.636719 L 120.90625 173.054688 C 116.285156 175.257812 112.5 181.25 112.5 186.367188 L 112.5 225.910156 C 112.5 231.027344 116.144531 237.28125 120.601562 239.808594 L 155.640625 259.691406 C 157.871094 260.957031 160.804688 261.589844 163.742188 261.589844 C 166.679688 261.589844 169.617188 260.957031 171.84375 259.691406 L 206.882812 239.808594 C 211.339844 237.28125 214.984375 231.027344 214.984375 225.910156 L 214.984375 186.367188 C 214.984375 181.25 211.203125 175.257812 206.578125 173.054688 Z M 163.742188 174.339844 C 168.246094 174.339844 171.894531 176.421875 171.894531 178.992188 C 171.894531 181.5625 168.246094 183.644531 163.742188 183.644531 C 159.242188 183.644531 155.589844 181.5625 155.589844 178.992188 C 155.589844 176.421875 159.242188 174.339844 163.742188 174.339844 Z M 130.886719 233.683594 C 130.390625 233.929688 129.859375 234.046875 129.3125 234.046875 C 126.933594 234.046875 124.265625 231.800781 122.808594 228.308594 C 121.011719 224.011719 121.722656 219.457031 124.390625 218.128906 C 124.890625 217.882812 125.417969 217.765625 125.964844 217.765625 C 128.347656 217.765625 131.011719 220.007812 132.472656 223.503906 C 134.265625 227.796875 133.554688 232.355469 130.886719 233.683594 Z M 130.886719 208.09375 C 130.390625 208.339844 129.859375 208.457031 129.3125 208.457031 C 126.933594 208.457031 124.265625 206.214844 122.808594 202.71875 C 121.011719 198.425781 121.722656 193.867188 124.390625 192.539062 C 124.890625 192.292969 125.417969 192.175781 125.964844 192.175781 C 128.347656 192.175781 131.011719 194.417969 132.472656 197.914062 C 134.265625 202.207031 133.554688 206.765625 130.886719 208.09375 Z M 154.179688 246.476562 C 153.679688 246.722656 153.152344 246.84375 152.605469 246.84375 C 150.226562 246.84375 147.558594 244.597656 146.097656 241.101562 C 144.304688 236.808594 145.015625 232.25 147.683594 230.921875 C 148.179688 230.675781 148.710938 230.558594 149.257812 230.558594 C 151.636719 230.558594 154.304688 232.804688 155.765625 236.296875 C 157.558594 240.59375 156.847656 245.148438 154.179688 246.476562 Z M 154.179688 220.886719 C 153.679688 221.136719 153.152344 221.253906 152.605469 221.253906 C 150.226562 221.253906 147.558594 219.007812 146.097656 215.515625 C 144.304688 211.21875 145.015625 206.660156 147.683594 205.335938 C 148.179688 205.085938 148.710938 204.96875 149.257812 204.96875 C 151.636719 204.96875 154.304688 207.214844 155.765625 210.707031 C 157.558594 215.003906 156.847656 219.558594 154.179688 220.886719 Z M 181.386719 241.101562 C 179.925781 244.597656 177.257812 246.84375 174.878906 246.84375 C 174.332031 246.84375 173.804688 246.722656 173.304688 246.476562 C 170.636719 245.148438 169.925781 240.59375 171.71875 236.296875 C 173.179688 232.804688 175.847656 230.558594 178.226562 230.558594 C 178.773438 230.558594 179.304688 230.675781 179.800781 230.921875 C 182.46875 232.25 183.179688 236.808594 181.386719 241.101562 Z M 181.386719 215.515625 C 179.925781 219.007812 177.257812 221.253906 174.878906 221.253906 C 174.332031 221.253906 173.804688 221.136719 173.304688 220.886719 C 170.636719 219.558594 169.925781 215.003906 171.71875 210.707031 C 173.179688 207.214844 175.847656 204.96875 178.226562 204.96875 C 178.773438 204.96875 179.304688 205.085938 179.800781 205.335938 C 182.46875 206.660156 183.179688 211.21875 181.386719 215.515625 Z M 204.675781 228.308594 C 203.21875 231.800781 200.550781 234.046875 198.171875 234.046875 C 197.625 234.046875 197.09375 233.929688 196.597656 233.683594 C 193.929688 232.355469 193.21875 227.796875 195.011719 223.503906 C 196.472656 220.007812 199.136719 217.765625 201.519531 217.765625 C 202.066406 217.765625 202.59375 217.882812 203.09375 218.128906 C 205.761719 219.457031 206.472656 224.011719 204.675781 228.308594 Z M 204.675781 202.71875 C 203.21875 206.214844 200.550781 208.457031 198.171875 208.457031 C 197.625 208.457031 197.09375 208.339844 196.597656 208.09375 C 193.929688 206.765625 193.21875 202.207031 195.011719 197.914062 C 196.472656 194.417969 199.136719 192.175781 201.519531 192.175781 C 202.066406 192.175781 202.59375 192.292969 203.09375 192.539062 C 205.761719 193.867188 206.472656 198.425781 204.675781 202.71875 Z M 208.105469 183.214844 L 166.070312 206.339844 L 166.070312 254.984375 C 166.070312 256.269531 165.027344 257.308594 163.742188 257.308594 C 162.457031 257.308594 161.414062 256.269531 161.414062 254.984375 L 161.414062 206.519531 L 119.042969 182.871094 C 117.917969 182.246094 117.515625 180.828125 118.140625 179.707031 C 118.765625 178.585938 120.183594 178.183594 121.308594 178.804688 L 163.582031 202.398438 L 205.851562 179.140625 C 206.976562 178.523438 208.394531 178.929688 209.015625 180.054688 C 209.636719 181.175781 209.230469 182.59375 208.105469 183.214844 Z M 208.105469 183.214844 " fill-opacity="1" fill-rule="nonzero"/></g><g clip-path="url(#5cb59c2fd4)"><path fill="#fbcf00" d="M 247.988281 138.519531 C 246.277344 133.695312 240.929688 128.351562 236.097656 126.644531 L 199.898438 113.859375 C 198.570312 113.390625 197.085938 113.167969 195.554688 113.167969 C 191.515625 113.167969 187.15625 114.710938 184.527344 117.335938 L 156.355469 145.472656 C 154.515625 147.308594 153.136719 150.015625 152.398438 152.882812 L 153.328125 152.4375 C 156.179688 151.078125 159.875 150.332031 163.742188 150.332031 C 164.089844 150.332031 164.429688 150.34375 164.773438 150.355469 C 166.140625 148.871094 167.726562 147.976562 169.191406 147.976562 C 169.582031 147.976562 169.964844 148.039062 170.328125 148.167969 C 171.738281 148.667969 172.632812 150.074219 172.9375 151.917969 C 173.359375 152.082031 173.765625 152.253906 174.15625 152.441406 L 188.855469 159.449219 C 190.4375 156.71875 192.746094 154.953125 194.8125 154.953125 C 195.203125 154.953125 195.585938 155.015625 195.949219 155.144531 C 198.472656 156.039062 199.359375 159.828125 198.125 163.867188 L 204.191406 166.757812 L 205.386719 165.550781 L 192.738281 120.421875 C 192.390625 119.1875 193.113281 117.902344 194.347656 117.554688 C 195.589844 117.207031 196.875 117.925781 197.222656 119.160156 L 209.996094 164.738281 L 255.328125 177.648438 C 256.566406 178.003906 257.28125 179.289062 256.929688 180.527344 C 256.636719 181.546875 255.703125 182.214844 254.691406 182.214844 C 254.5 182.214844 217.582031 171.730469 209.828125 169.527344 C 212.433594 171.078125 214.742188 173.449219 216.460938 176.1875 C 217.925781 176.59375 219.023438 177.414062 219.449219 178.617188 C 219.824219 179.664062 219.636719 180.839844 219.019531 181.984375 C 219.417969 183.449219 219.644531 184.925781 219.644531 186.367188 L 219.644531 222.515625 C 223.242188 221.996094 226.859375 220.4375 229.136719 218.164062 L 257.308594 190.027344 C 260.933594 186.40625 262.5 179.5 260.789062 174.671875 Z M 190.800781 140.167969 C 189.324219 143.429688 186.429688 145.648438 183.914062 145.648438 C 183.523438 145.648438 183.140625 145.597656 182.777344 145.484375 C 180.050781 144.660156 179.230469 140.9375 180.9375 137.171875 C 182.414062 133.914062 185.308594 131.691406 187.828125 131.691406 C 188.214844 131.691406 188.597656 131.746094 188.960938 131.855469 C 191.6875 132.683594 192.511719 136.40625 190.800781 140.167969 Z M 231.53125 156.363281 C 230.90625 156.984375 230.03125 157.28125 229.019531 157.28125 C 226.929688 157.28125 224.257812 156.019531 222 153.765625 C 218.648438 150.417969 217.484375 146.15625 219.398438 144.246094 C 220.023438 143.621094 220.898438 143.324219 221.914062 143.324219 C 224.003906 143.324219 226.675781 144.585938 228.933594 146.839844 C 232.28125 150.1875 233.445312 154.449219 231.53125 156.363281 Z M 238.863281 193.613281 C 237.3125 194.214844 235.765625 194.5 234.371094 194.5 C 231.820312 194.5 229.777344 193.535156 229.152344 191.777344 C 228.183594 189.054688 230.964844 185.464844 235.363281 183.757812 C 236.914062 183.15625 238.457031 182.871094 239.851562 182.871094 C 242.40625 182.871094 244.449219 183.835938 245.074219 185.597656 C 246.039062 188.316406 243.257812 191.90625 238.863281 193.613281 Z M 238.863281 193.613281 " fill-opacity="1" fill-rule="nonzero"/></g></svg>