<svg xmlns="http://www.w3.org/2000/svg" xmlns:xlink="http://www.w3.org/1999/xlink" width="500" zoomAndPan="magnify" viewBox="0 0 375 374.999991" height="500" preserveAspectRatio="xMidYMid meet" version="1.0"><defs><clipPath id="bcf71f09c0"><path d="M 76 162 L 146 162 L 146 232 L 76 232 Z M 76 162 " clip-rule="nonzero"/></clipPath><clipPath id="0e7e96cc16"><path d="M 76.621094 162.460938 L 145.617188 162.992188 L 145.085938 231.988281 L 76.089844 231.457031 Z M 76.621094 162.460938 " clip-rule="nonzero"/></clipPath><clipPath id="aac38a21cb"><path d="M 76.621094 162.460938 L 145.617188 162.992188 L 145.085938 231.988281 L 76.089844 231.457031 Z M 76.621094 162.460938 " clip-rule="nonzero"/></clipPath><clipPath id="7e13f2a900"><path d="M 102 185 L 120 185 L 120 210 L 102 210 Z M 102 185 " clip-rule="nonzero"/></clipPath><clipPath id="78d921c6c6"><path d="M 103.332031 185.4375 L 119.824219 185.976562 L 119.0625 209.214844 L 102.570312 208.671875 Z M 103.332031 185.4375 " clip-rule="nonzero"/></clipPath><clipPath id="7d78b6ba30"><path d="M 103.332031 185.4375 L 119.824219 185.976562 L 119.0625 209.214844 L 102.570312 208.671875 Z M 103.332031 185.4375 " clip-rule="nonzero"/></clipPath><clipPath id="22a1834f3b"><path d="M 110 192 L 116 192 L 116 197 L 110 197 Z M 110 192 " clip-rule="nonzero"/></clipPath><clipPath id="0d3f7718e6"><path d="M 106.871094 189.847656 L 115.867188 190.140625 L 115.574219 199.136719 L 106.578125 198.84375 Z M 106.871094 189.847656 " clip-rule="nonzero"/></clipPath><clipPath id="f74b06b411"><path d="M 106.871094 189.847656 L 115.867188 190.140625 L 115.574219 199.136719 L 106.578125 198.84375 Z M 106.871094 189.847656 " clip-rule="nonzero"/></clipPath><clipPath id="5811c94745"><path d="M 106.871094 189.847656 L 115.867188 190.140625 L 115.574219 199.136719 L 106.578125 198.84375 Z M 106.871094 189.847656 " clip-rule="nonzero"/></clipPath><clipPath id="eb0126a224"><path d="M 106 192 L 113 192 L 113 197 L 106 197 Z M 106 192 " clip-rule="nonzero"/></clipPath><clipPath id="153312fc4a"><path d="M 106.871094 189.847656 L 115.867188 190.140625 L 115.574219 199.136719 L 106.578125 198.84375 Z M 106.871094 189.847656 " clip-rule="nonzero"/></clipPath><clipPath id="96cbf990b7"><path d="M 106.871094 189.847656 L 115.867188 190.140625 L 115.574219 199.136719 L 106.578125 198.84375 Z M 106.871094 189.847656 " clip-rule="nonzero"/></clipPath><clipPath id="03307721e3"><path d="M 106.871094 189.847656 L 115.867188 190.140625 L 115.574219 199.136719 L 106.578125 198.84375 Z M 106.871094 189.847656 " clip-rule="nonzero"/></clipPath><clipPath id="65a73b2d10"><path d="M 108 189 L 114 189 L 114 196 L 108 196 Z M 108 189 " clip-rule="nonzero"/></clipPath><clipPath id="3e20f3b29e"><path d="M 106.871094 189.847656 L 115.867188 190.140625 L 115.574219 199.136719 L 106.578125 198.84375 Z M 106.871094 189.847656 " clip-rule="nonzero"/></clipPath><clipPath id="bb33cc3264"><path d="M 106.871094 189.847656 L 115.867188 190.140625 L 115.574219 199.136719 L 106.578125 198.84375 Z M 106.871094 189.847656 " clip-rule="nonzero"/></clipPath><clipPath id="e4d0328bd9"><path d="M 106.871094 189.847656 L 115.867188 190.140625 L 115.574219 199.136719 L 106.578125 198.84375 Z M 106.871094 189.847656 " clip-rule="nonzero"/></clipPath><clipPath id="e624bf30b3"><path d="M 108 193 L 114 193 L 114 199 L 108 199 Z M 108 193 " clip-rule="nonzero"/></clipPath><clipPath id="c1ea275c8c"><path d="M 106.871094 189.847656 L 115.867188 190.140625 L 115.574219 199.136719 L 106.578125 198.84375 Z M 106.871094 189.847656 " clip-rule="nonzero"/></clipPath><clipPath id="a734f17473"><path d="M 106.871094 189.847656 L 115.867188 190.140625 L 115.574219 199.136719 L 106.578125 198.84375 Z M 106.871094 189.847656 " clip-rule="nonzero"/></clipPath><clipPath id="b086e13af5"><path d="M 106.871094 189.847656 L 115.867188 190.140625 L 115.574219 199.136719 L 106.578125 198.84375 Z M 106.871094 189.847656 " clip-rule="nonzero"/></clipPath><clipPath id="cad77da8c4"><path d="M 141 151 L 234 151 L 234 244 L 141 244 Z M 141 151 " clip-rule="nonzero"/></clipPath><clipPath id="806eeb2cd2"><path d="M 141.679688 150.960938 L 233.929688 151.667969 L 233.21875 243.917969 L 140.972656 243.207031 Z M 141.679688 150.960938 " clip-rule="nonzero"/></clipPath><clipPath id="a07a500463"><path d="M 141.679688 150.960938 L 233.929688 151.667969 L 233.21875 243.917969 L 140.972656 243.207031 Z M 141.679688 150.960938 " clip-rule="nonzero"/></clipPath><clipPath id="e8301cbc6c"><path d="M 176 181 L 199 181 L 199 213 L 176 213 Z M 176 181 " clip-rule="nonzero"/></clipPath><clipPath id="52da8d1c55"><path d="M 177.191406 181.5 L 198.929688 182.214844 L 197.921875 212.949219 L 176.183594 212.234375 Z M 177.191406 181.5 " clip-rule="nonzero"/></clipPath><clipPath id="f898526501"><path d="M 177.191406 181.5 L 198.929688 182.214844 L 197.921875 212.949219 L 176.183594 212.234375 Z M 177.191406 181.5 " clip-rule="nonzero"/></clipPath><clipPath id="09f01d348b"><path d="M 186 190 L 194 190 L 194 197 L 186 197 Z M 186 190 " clip-rule="nonzero"/></clipPath><clipPath id="847c88acb5"><path d="M 181.894531 187.363281 L 193.890625 187.757812 L 193.496094 199.75 L 181.503906 199.359375 Z M 181.894531 187.363281 " clip-rule="nonzero"/></clipPath><clipPath id="183242a506"><path d="M 181.894531 187.363281 L 193.890625 187.757812 L 193.496094 199.75 L 181.503906 199.359375 Z M 181.894531 187.363281 " clip-rule="nonzero"/></clipPath><clipPath id="d1b575feb7"><path d="M 181.894531 187.363281 L 193.890625 187.757812 L 193.496094 199.75 L 181.503906 199.359375 Z M 181.894531 187.363281 " clip-rule="nonzero"/></clipPath><clipPath id="a42ef81601"><path d="M 181 190 L 189 190 L 189 197 L 181 197 Z M 181 190 " clip-rule="nonzero"/></clipPath><clipPath id="32763d7919"><path d="M 181.894531 187.363281 L 193.890625 187.757812 L 193.496094 199.75 L 181.503906 199.359375 Z M 181.894531 187.363281 " clip-rule="nonzero"/></clipPath><clipPath id="c9f15a0b9c"><path d="M 181.894531 187.363281 L 193.890625 187.757812 L 193.496094 199.75 L 181.503906 199.359375 Z M 181.894531 187.363281 " clip-rule="nonzero"/></clipPath><clipPath id="b636b8835a"><path d="M 181.894531 187.363281 L 193.890625 187.757812 L 193.496094 199.75 L 181.503906 199.359375 Z M 181.894531 187.363281 " clip-rule="nonzero"/></clipPath><clipPath id="3196ef680a"><path d="M 184 187 L 192 187 L 192 195 L 184 195 Z M 184 187 " clip-rule="nonzero"/></clipPath><clipPath id="ab1917f969"><path d="M 181.894531 187.363281 L 193.890625 187.757812 L 193.496094 199.75 L 181.503906 199.359375 Z M 181.894531 187.363281 " clip-rule="nonzero"/></clipPath><clipPath id="e7663104d8"><path d="M 181.894531 187.363281 L 193.890625 187.757812 L 193.496094 199.75 L 181.503906 199.359375 Z M 181.894531 187.363281 " clip-rule="nonzero"/></clipPath><clipPath id="0188f1ba87"><path d="M 181.894531 187.363281 L 193.890625 187.757812 L 193.496094 199.75 L 181.503906 199.359375 Z M 181.894531 187.363281 " clip-rule="nonzero"/></clipPath><clipPath id="a2ecf6e10b"><path d="M 184 192 L 191 192 L 191 200 L 184 200 Z M 184 192 " clip-rule="nonzero"/></clipPath><clipPath id="515c9e0b27"><path d="M 181.894531 187.363281 L 193.890625 187.757812 L 193.496094 199.75 L 181.503906 199.359375 Z M 181.894531 187.363281 " clip-rule="nonzero"/></clipPath><clipPath id="c6f1b0bb66"><path d="M 181.894531 187.363281 L 193.890625 187.757812 L 193.496094 199.75 L 181.503906 199.359375 Z M 181.894531 187.363281 " clip-rule="nonzero"/></clipPath><clipPath id="ce1665f087"><path d="M 181.894531 187.363281 L 193.890625 187.757812 L 193.496094 199.75 L 181.503906 199.359375 Z M 181.894531 187.363281 " clip-rule="nonzero"/></clipPath><clipPath id="a2ae184940"><path d="M 229 162 L 299 162 L 299 232 L 229 232 Z M 229 162 " clip-rule="nonzero"/></clipPath><clipPath id="ca44d6edf3"><path d="M 229.589844 162.460938 L 298.589844 162.992188 L 298.058594 231.988281 L 229.0625 231.457031 Z M 229.589844 162.460938 " clip-rule="nonzero"/></clipPath><clipPath id="9b7abe3f95"><path d="M 229.589844 162.460938 L 298.589844 162.992188 L 298.058594 231.988281 L 229.0625 231.457031 Z M 229.589844 162.460938 " clip-rule="nonzero"/></clipPath><clipPath id="bdb2a672ee"><path d="M 182.765625 118 L 193.265625 118 L 193.265625 278 L 182.765625 278 Z M 182.765625 118 " clip-rule="nonzero"/></clipPath><clipPath id="e96794c8c3"><path d="M 255 185 L 273 185 L 273 210 L 255 210 Z M 255 185 " clip-rule="nonzero"/></clipPath><clipPath id="1a4bbc0655"><path d="M 256.304688 185.4375 L 272.796875 185.976562 L 272.035156 209.214844 L 255.542969 208.671875 Z M 256.304688 185.4375 " clip-rule="nonzero"/></clipPath><clipPath id="f6a1bde273"><path d="M 256.304688 185.4375 L 272.796875 185.976562 L 272.035156 209.214844 L 255.542969 208.671875 Z M 256.304688 185.4375 " clip-rule="nonzero"/></clipPath><clipPath id="f05382c370"><path d="M 263 192 L 269 192 L 269 197 L 263 197 Z M 263 192 " clip-rule="nonzero"/></clipPath><clipPath id="ed57d6822e"><path d="M 259.84375 189.847656 L 268.839844 190.140625 L 268.542969 199.136719 L 259.550781 198.84375 Z M 259.84375 189.847656 " clip-rule="nonzero"/></clipPath><clipPath id="26670a0921"><path d="M 259.84375 189.847656 L 268.839844 190.140625 L 268.542969 199.136719 L 259.550781 198.84375 Z M 259.84375 189.847656 " clip-rule="nonzero"/></clipPath><clipPath id="2a2a02f3a4"><path d="M 259.84375 189.847656 L 268.839844 190.140625 L 268.542969 199.136719 L 259.550781 198.84375 Z M 259.84375 189.847656 " clip-rule="nonzero"/></clipPath><clipPath id="dcf015f5da"><path d="M 259 192 L 266 192 L 266 197 L 259 197 Z M 259 192 " clip-rule="nonzero"/></clipPath><clipPath id="922b4feabd"><path d="M 259.84375 189.847656 L 268.839844 190.140625 L 268.542969 199.136719 L 259.550781 198.84375 Z M 259.84375 189.847656 " clip-rule="nonzero"/></clipPath><clipPath id="ac114115d8"><path d="M 259.84375 189.847656 L 268.839844 190.140625 L 268.542969 199.136719 L 259.550781 198.84375 Z M 259.84375 189.847656 " clip-rule="nonzero"/></clipPath><clipPath id="85decbc63b"><path d="M 259.84375 189.847656 L 268.839844 190.140625 L 268.542969 199.136719 L 259.550781 198.84375 Z M 259.84375 189.847656 " clip-rule="nonzero"/></clipPath><clipPath id="f73672f982"><path d="M 261 189 L 267 189 L 267 196 L 261 196 Z M 261 189 " clip-rule="nonzero"/></clipPath><clipPath id="cf39dc3a36"><path d="M 259.84375 189.847656 L 268.839844 190.140625 L 268.542969 199.136719 L 259.550781 198.84375 Z M 259.84375 189.847656 " clip-rule="nonzero"/></clipPath><clipPath id="e8f168e542"><path d="M 259.84375 189.847656 L 268.839844 190.140625 L 268.542969 199.136719 L 259.550781 198.84375 Z M 259.84375 189.847656 " clip-rule="nonzero"/></clipPath><clipPath id="6437675936"><path d="M 259.84375 189.847656 L 268.839844 190.140625 L 268.542969 199.136719 L 259.550781 198.84375 Z M 259.84375 189.847656 " clip-rule="nonzero"/></clipPath><clipPath id="6e9081f3e7"><path d="M 261 193 L 267 193 L 267 199 L 261 199 Z M 261 193 " clip-rule="nonzero"/></clipPath><clipPath id="4842d870d6"><path d="M 259.84375 189.847656 L 268.839844 190.140625 L 268.542969 199.136719 L 259.550781 198.84375 Z M 259.84375 189.847656 " clip-rule="nonzero"/></clipPath><clipPath id="10132c0f24"><path d="M 259.84375 189.847656 L 268.839844 190.140625 L 268.542969 199.136719 L 259.550781 198.84375 Z M 259.84375 189.847656 " clip-rule="nonzero"/></clipPath><clipPath id="4b4488ac77"><path d="M 259.84375 189.847656 L 268.839844 190.140625 L 268.542969 199.136719 L 259.550781 198.84375 Z M 259.84375 189.847656 " clip-rule="nonzero"/></clipPath></defs><rect x="-37.5" width="450" fill="#ffffff" y="-37.499999" height="449.999989" fill-opacity="1"/><rect x="-37.5" width="450" fill="#ffffff" y="-37.499999" height="449.999989" fill-opacity="1"/><rect x="-37.5" width="450" fill="#000000" y="-37.499999" height="449.999989" fill-opacity="1"/><g clip-path="url(#bcf71f09c0)"><g clip-path="url(#0e7e96cc16)"><g clip-path="url(#aac38a21cb)"><path fill="#fbcf00" d="M 135.003906 162.910156 L 87.234375 162.542969 C 81.371094 162.496094 76.582031 167.214844 76.539062 173.074219 L 76.171875 220.84375 C 76.125 226.707031 80.84375 231.496094 86.703125 231.539062 L 134.472656 231.90625 C 140.335938 231.953125 145.125 227.234375 145.167969 221.375 L 145.535156 173.605469 C 145.582031 167.742188 140.863281 162.953125 135.003906 162.910156 Z M 139.859375 221.332031 C 139.839844 224.261719 137.441406 226.621094 134.511719 226.601562 L 86.746094 226.230469 C 83.816406 226.210938 81.457031 223.8125 81.476562 220.882812 L 81.84375 173.117188 C 81.867188 170.1875 84.265625 167.828125 87.195312 167.847656 L 134.960938 168.214844 C 137.886719 168.238281 140.25 170.636719 140.226562 173.566406 Z M 139.859375 221.332031 " fill-opacity="1" fill-rule="nonzero"/></g></g></g><g clip-path="url(#7e13f2a900)"><g clip-path="url(#78d921c6c6)"><g clip-path="url(#7d78b6ba30)"><path fill="#ffffff" d="M 119.0625 209.203125 L 111.070312 201.15625 L 102.570312 208.660156 L 103.332031 185.449219 L 119.824219 185.988281 L 119.0625 209.203125 " fill-opacity="1" fill-rule="nonzero"/></g></g></g><g clip-path="url(#22a1834f3b)"><g clip-path="url(#0d3f7718e6)"><g clip-path="url(#f74b06b411)"><g clip-path="url(#5811c94745)"><path fill="#0f804c" d="M 115.722656 194.613281 C 115.691406 195.511719 115.363281 196.316406 114.855469 196.886719 C 114.351562 197.460938 111.792969 195.066406 111.050781 195.039062 C 110.304688 195.015625 111.515625 197.367188 111.046875 196.761719 C 110.578125 196.15625 110.304688 195.335938 110.332031 194.4375 C 110.363281 193.539062 110.691406 192.738281 111.199219 192.164062 C 111.703125 191.59375 110.335938 194.125 111.078125 194.148438 C 111.820312 194.175781 114.539062 191.683594 115.007812 192.289062 C 115.476562 192.894531 115.75 193.714844 115.722656 194.613281 Z M 115.722656 194.613281 " fill-opacity="1" fill-rule="evenodd"/></g></g></g></g><g clip-path="url(#eb0126a224)"><g clip-path="url(#153312fc4a)"><g clip-path="url(#96cbf990b7)"><g clip-path="url(#03307721e3)"><path fill="#0f804c" d="M 106.722656 194.363281 C 106.695312 195.261719 106.96875 196.082031 107.4375 196.6875 C 107.90625 197.292969 110.613281 195.070312 111.359375 195.09375 C 112.101562 195.121094 110.742188 197.386719 111.25 196.8125 C 111.753906 196.242188 112.082031 195.4375 112.113281 194.539062 C 112.140625 193.644531 111.867188 192.820312 111.398438 192.214844 C 110.929688 191.613281 112.132812 194.230469 111.386719 194.203125 C 110.644531 194.179688 108.097656 191.519531 107.589844 192.089844 C 107.082031 192.664062 106.753906 193.464844 106.722656 194.363281 Z M 106.722656 194.363281 " fill-opacity="1" fill-rule="evenodd"/></g></g></g></g><g clip-path="url(#65a73b2d10)"><g clip-path="url(#3e20f3b29e)"><g clip-path="url(#bb33cc3264)"><g clip-path="url(#e4d0328bd9)"><path fill="#0f804c" d="M 111.34375 189.996094 C 112.242188 190.023438 113.042969 190.351562 113.617188 190.859375 C 114.1875 191.367188 111.792969 193.921875 111.769531 194.667969 C 111.746094 195.410156 114.097656 194.199219 113.492188 194.667969 C 112.886719 195.136719 112.066406 195.414062 111.167969 195.382812 C 110.269531 195.355469 109.464844 195.023438 108.894531 194.519531 C 108.320312 194.011719 110.855469 195.382812 110.878906 194.636719 C 110.902344 193.894531 108.414062 191.175781 109.019531 190.707031 C 109.625 190.238281 110.445312 189.964844 111.34375 189.996094 Z M 111.34375 189.996094 " fill-opacity="1" fill-rule="evenodd"/></g></g></g></g><g clip-path="url(#e624bf30b3)"><g clip-path="url(#c1ea275c8c)"><g clip-path="url(#a734f17473)"><g clip-path="url(#b086e13af5)"><path fill="#0f804c" d="M 111.09375 198.992188 C 111.992188 199.019531 112.8125 198.746094 113.417969 198.277344 C 114.023438 197.808594 111.800781 195.101562 111.824219 194.355469 C 111.847656 193.613281 114.117188 194.972656 113.542969 194.46875 C 112.96875 193.960938 112.167969 193.632812 111.269531 193.601562 C 110.371094 193.574219 109.550781 193.847656 108.945312 194.316406 C 108.339844 194.785156 110.957031 193.582031 110.933594 194.328125 C 110.910156 195.070312 108.25 197.621094 108.820312 198.128906 C 109.394531 198.632812 110.195312 198.960938 111.09375 198.992188 Z M 111.09375 198.992188 " fill-opacity="1" fill-rule="evenodd"/></g></g></g></g><g clip-path="url(#cad77da8c4)"><g clip-path="url(#806eeb2cd2)"><g clip-path="url(#a07a500463)"><path fill="#fbcf00" d="M 219.738281 151.558594 L 155.875 151.070312 C 148.035156 151.007812 141.632812 157.316406 141.574219 165.152344 L 141.082031 229.015625 C 141.019531 236.851562 147.328125 243.257812 155.164062 243.316406 L 219.027344 243.808594 C 226.863281 243.867188 233.269531 237.5625 233.328125 229.726562 L 233.820312 165.859375 C 233.878906 158.023438 227.574219 151.621094 219.738281 151.558594 Z M 226.234375 229.671875 C 226.203125 233.585938 222.996094 236.742188 219.082031 236.710938 L 155.21875 236.21875 C 151.300781 236.191406 148.148438 232.988281 148.175781 229.070312 L 148.667969 165.207031 C 148.699219 161.292969 151.902344 158.136719 155.820312 158.164062 L 219.683594 158.65625 C 223.59375 158.6875 226.753906 161.894531 226.722656 165.808594 Z M 226.234375 229.671875 " fill-opacity="1" fill-rule="nonzero"/></g></g></g><g clip-path="url(#e8301cbc6c)"><g clip-path="url(#52da8d1c55)"><g clip-path="url(#f898526501)"><path fill="#ffffff" d="M 197.917969 212.925781 L 187.386719 202.289062 L 176.183594 212.214844 L 177.1875 181.523438 L 198.925781 182.234375 L 197.917969 212.925781 " fill-opacity="1" fill-rule="nonzero"/></g></g></g><g clip-path="url(#09f01d348b)"><g clip-path="url(#847c88acb5)"><g clip-path="url(#183242a506)"><g clip-path="url(#d1b575feb7)"><path fill="#0f804c" d="M 193.695312 193.71875 C 193.65625 194.917969 193.21875 195.988281 192.542969 196.75 C 191.867188 197.515625 188.457031 194.320312 187.464844 194.289062 C 186.472656 194.257812 188.085938 197.390625 187.460938 196.585938 C 186.835938 195.777344 186.46875 194.679688 186.511719 193.484375 C 186.550781 192.289062 186.988281 191.21875 187.664062 190.453125 C 188.339844 189.691406 186.511719 193.070312 187.503906 193.101562 C 188.496094 193.132812 192.117188 189.816406 192.742188 190.621094 C 193.367188 191.425781 193.734375 192.523438 193.695312 193.71875 Z M 193.695312 193.71875 " fill-opacity="1" fill-rule="evenodd"/></g></g></g></g><g clip-path="url(#a42ef81601)"><g clip-path="url(#32763d7919)"><g clip-path="url(#c9f15a0b9c)"><g clip-path="url(#b636b8835a)"><path fill="#0f804c" d="M 181.699219 193.386719 C 181.660156 194.582031 182.027344 195.679688 182.648438 196.484375 C 183.273438 197.292969 186.886719 194.328125 187.878906 194.363281 C 188.871094 194.394531 187.054688 197.414062 187.730469 196.652344 C 188.40625 195.890625 188.84375 194.820312 188.882812 193.621094 C 188.921875 192.425781 188.554688 191.328125 187.929688 190.523438 C 187.308594 189.714844 188.910156 193.207031 187.917969 193.175781 C 186.925781 193.140625 183.527344 189.59375 182.851562 190.355469 C 182.175781 191.117188 181.738281 192.1875 181.699219 193.386719 Z M 181.699219 193.386719 " fill-opacity="1" fill-rule="evenodd"/></g></g></g></g><g clip-path="url(#3196ef680a)"><g clip-path="url(#ab1917f969)"><g clip-path="url(#e7663104d8)"><g clip-path="url(#0188f1ba87)"><path fill="#0f804c" d="M 187.859375 187.558594 C 189.054688 187.601562 190.125 188.039062 190.886719 188.714844 C 191.652344 189.390625 188.457031 192.800781 188.425781 193.789062 C 188.394531 194.78125 191.527344 193.167969 190.722656 193.792969 C 189.914062 194.417969 188.820312 194.785156 187.621094 194.746094 C 186.425781 194.707031 185.355469 194.269531 184.589844 193.59375 C 183.828125 192.917969 187.207031 194.742188 187.238281 193.753906 C 187.269531 192.761719 183.953125 189.136719 184.757812 188.511719 C 185.5625 187.886719 186.660156 187.519531 187.859375 187.558594 Z M 187.859375 187.558594 " fill-opacity="1" fill-rule="evenodd"/></g></g></g></g><g clip-path="url(#a2ecf6e10b)"><g clip-path="url(#515c9e0b27)"><g clip-path="url(#c6f1b0bb66)"><g clip-path="url(#ce1665f087)"><path fill="#0f804c" d="M 187.523438 199.558594 C 188.71875 199.597656 189.816406 199.230469 190.621094 198.605469 C 191.429688 197.980469 188.464844 194.371094 188.5 193.378906 C 188.53125 192.386719 191.554688 194.199219 190.789062 193.523438 C 190.027344 192.847656 188.957031 192.410156 187.757812 192.371094 C 186.5625 192.332031 185.464844 192.699219 184.660156 193.324219 C 183.855469 193.949219 187.34375 192.347656 187.3125 193.339844 C 187.277344 194.332031 183.730469 197.726562 184.492188 198.402344 C 185.257812 199.082031 186.328125 199.519531 187.523438 199.558594 Z M 187.523438 199.558594 " fill-opacity="1" fill-rule="evenodd"/></g></g></g></g><g clip-path="url(#a2ae184940)"><g clip-path="url(#ca44d6edf3)"><g clip-path="url(#9b7abe3f95)"><path fill="#fbcf00" d="M 287.976562 162.910156 L 240.207031 162.542969 C 234.34375 162.496094 229.554688 167.214844 229.511719 173.074219 L 229.144531 220.84375 C 229.097656 226.707031 233.8125 231.496094 239.675781 231.539062 L 287.445312 231.90625 C 293.304688 231.953125 298.097656 227.234375 298.140625 221.375 L 298.507812 173.605469 C 298.554688 167.742188 293.835938 162.953125 287.976562 162.910156 Z M 292.832031 221.332031 C 292.8125 224.261719 290.410156 226.621094 287.484375 226.601562 L 239.71875 226.230469 C 236.789062 226.210938 234.429688 223.8125 234.449219 220.882812 L 234.816406 173.117188 C 234.839844 170.1875 237.234375 167.828125 240.164062 167.847656 L 287.933594 168.214844 C 290.859375 168.238281 293.222656 170.636719 293.199219 173.566406 Z M 292.832031 221.332031 " fill-opacity="1" fill-rule="nonzero"/></g></g></g><g clip-path="url(#bdb2a672ee)"><path fill="#fbcf00" d="M 193.265625 271.71875 L 193.265625 123.324219 C 193.265625 120.394531 190.914062 118.023438 188.015625 118.023438 C 185.113281 118.023438 182.765625 120.394531 182.765625 123.324219 L 182.765625 271.71875 C 182.765625 274.644531 185.113281 277.019531 188.015625 277.019531 C 190.914062 277.019531 193.265625 274.644531 193.265625 271.71875 Z M 193.265625 271.71875 " fill-opacity="1" fill-rule="nonzero"/></g><g clip-path="url(#e96794c8c3)"><g clip-path="url(#1a4bbc0655)"><g clip-path="url(#f6a1bde273)"><path fill="#ffffff" d="M 272.03125 209.203125 L 264.042969 201.15625 L 255.542969 208.660156 L 256.304688 185.449219 L 272.792969 185.988281 L 272.03125 209.203125 " fill-opacity="1" fill-rule="nonzero"/></g></g></g><g clip-path="url(#f05382c370)"><g clip-path="url(#ed57d6822e)"><g clip-path="url(#26670a0921)"><g clip-path="url(#2a2a02f3a4)"><path fill="#0f804c" d="M 268.695312 194.613281 C 268.664062 195.511719 268.335938 196.316406 267.828125 196.886719 C 267.324219 197.460938 264.765625 195.066406 264.019531 195.039062 C 263.277344 195.015625 264.488281 197.367188 264.019531 196.761719 C 263.550781 196.15625 263.277344 195.335938 263.304688 194.4375 C 263.335938 193.539062 263.664062 192.738281 264.171875 192.164062 C 264.675781 191.59375 263.304688 194.125 264.050781 194.148438 C 264.792969 194.175781 267.511719 191.683594 267.980469 192.289062 C 268.449219 192.894531 268.722656 193.714844 268.695312 194.613281 Z M 268.695312 194.613281 " fill-opacity="1" fill-rule="evenodd"/></g></g></g></g><g clip-path="url(#dcf015f5da)"><g clip-path="url(#922b4feabd)"><g clip-path="url(#ac114115d8)"><g clip-path="url(#85decbc63b)"><path fill="#0f804c" d="M 259.695312 194.363281 C 259.667969 195.261719 259.941406 196.082031 260.410156 196.6875 C 260.878906 197.292969 263.585938 195.070312 264.332031 195.09375 C 265.074219 195.121094 263.714844 197.386719 264.222656 196.8125 C 264.726562 196.242188 265.054688 195.4375 265.085938 194.539062 C 265.113281 193.644531 264.839844 192.820312 264.371094 192.214844 C 263.902344 191.613281 265.105469 194.230469 264.359375 194.203125 C 263.617188 194.179688 261.066406 191.519531 260.5625 192.089844 C 260.054688 192.664062 259.726562 193.464844 259.695312 194.363281 Z M 259.695312 194.363281 " fill-opacity="1" fill-rule="evenodd"/></g></g></g></g><g clip-path="url(#f73672f982)"><g clip-path="url(#cf39dc3a36)"><g clip-path="url(#e8f168e542)"><g clip-path="url(#6437675936)"><path fill="#0f804c" d="M 264.316406 189.996094 C 265.214844 190.023438 266.015625 190.351562 266.589844 190.859375 C 267.160156 191.367188 264.765625 193.921875 264.742188 194.667969 C 264.71875 195.410156 267.070312 194.199219 266.464844 194.667969 C 265.859375 195.136719 265.035156 195.414062 264.140625 195.382812 C 263.242188 195.355469 262.4375 195.023438 261.867188 194.519531 C 261.292969 194.011719 263.828125 195.382812 263.851562 194.636719 C 263.875 193.894531 261.386719 191.175781 261.992188 190.707031 C 262.597656 190.238281 263.417969 189.964844 264.316406 189.996094 Z M 264.316406 189.996094 " fill-opacity="1" fill-rule="evenodd"/></g></g></g></g><g clip-path="url(#6e9081f3e7)"><g clip-path="url(#4842d870d6)"><g clip-path="url(#10132c0f24)"><g clip-path="url(#4b4488ac77)"><path fill="#0f804c" d="M 264.066406 198.992188 C 264.964844 199.019531 265.785156 198.746094 266.390625 198.277344 C 266.996094 197.808594 264.773438 195.101562 264.796875 194.355469 C 264.820312 193.613281 267.085938 194.972656 266.515625 194.46875 C 265.941406 193.960938 265.140625 193.632812 264.242188 193.601562 C 263.34375 193.574219 262.523438 193.847656 261.917969 194.316406 C 261.3125 194.785156 263.929688 193.582031 263.90625 194.328125 C 263.882812 195.070312 261.21875 197.621094 261.792969 198.128906 C 262.363281 198.632812 263.167969 198.960938 264.066406 198.992188 Z M 264.066406 198.992188 " fill-opacity="1" fill-rule="evenodd"/></g></g></g></g></svg>