<svg xmlns="http://www.w3.org/2000/svg" xmlns:xlink="http://www.w3.org/1999/xlink" width="500" zoomAndPan="magnify" viewBox="0 0 375 374.999991" height="500" preserveAspectRatio="xMidYMid meet" version="1.0"><defs><clipPath id="4df2c9b026"><path d="M 118.890625 137.171875 L 235.136719 137.171875 L 235.136719 262.5 L 118.890625 262.5 Z M 118.890625 137.171875 " clip-rule="nonzero"/></clipPath><clipPath id="4412f4cf30"><path d="M 235 112.5 L 238 112.5 L 238 130 L 235 130 Z M 235 112.5 " clip-rule="nonzero"/></clipPath><clipPath id="6c6cff2693"><path d="M 240.191406 125 L 255.929688 125 L 255.929688 133.378906 L 240.191406 133.378906 Z M 240.191406 125 " clip-rule="nonzero"/></clipPath><clipPath id="7c84fec7fe"><path d="M 240.191406 133.378906 L 255.929688 133.378906 L 255.929688 142 L 240.191406 142 Z M 240.191406 133.378906 " clip-rule="nonzero"/></clipPath></defs><rect x="-37.5" width="450" fill="#ffffff" y="-37.499999" height="449.999989" fill-opacity="1"/><rect x="-37.5" width="450" fill="#ffffff" y="-37.499999" height="449.999989" fill-opacity="1"/><rect x="-37.5" width="450" fill="#000000" y="-37.499999" height="449.999989" fill-opacity="1"/><path fill="#fbcf00" d="M 236.539062 130.984375 L 236.523438 130.984375 C 235.34375 131.011719 234.429688 132.027344 234.515625 133.203125 C 234.800781 137.144531 234.722656 144.136719 231.308594 148.4375 C 229.378906 150.867188 226.65625 152.125 222.984375 152.285156 C 218.808594 152.457031 215.5 151.335938 213.136719 148.945312 C 208.230469 143.980469 208.527344 134.59375 208.527344 134.59375 C 208.242188 131.101562 207.125 124.933594 202.929688 120.679688 C 199.714844 117.414062 195.351562 115.878906 189.972656 116.109375 C 185.101562 116.316406 181.273438 118.136719 178.59375 121.519531 C 175.21875 125.773438 174.40625 131.671875 174.382812 136.253906 L 178.5 136.253906 C 178.519531 132.339844 179.164062 127.417969 181.820312 124.074219 C 183.75 121.640625 186.476562 120.382812 190.148438 120.226562 C 194.324219 120.054688 197.632812 121.175781 199.988281 123.5625 C 204.902344 128.53125 204.605469 137.917969 204.605469 137.917969 C 204.886719 141.410156 206.007812 147.574219 210.199219 151.832031 C 213.207031 154.878906 217.214844 156.425781 222.125 156.425781 C 222.460938 156.425781 222.808594 156.417969 223.15625 156.402344 C 228.03125 156.195312 231.859375 154.375 234.539062 150.992188 C 238.824219 145.582031 238.980469 137.519531 238.628906 132.878906 C 238.546875 131.789062 237.628906 130.960938 236.539062 130.984375 " fill-opacity="1" fill-rule="nonzero"/><g clip-path="url(#4df2c9b026)"><path fill="#fbcf00" d="M 142.46875 232.980469 C 141.40625 233.613281 140.03125 233.300781 139.339844 232.273438 C 128.492188 216.109375 129.199219 201.289062 131.792969 191.558594 C 133.878906 183.738281 137.417969 177.988281 139.355469 175.246094 C 140.070312 174.230469 141.460938 173.980469 142.480469 174.6875 L 142.613281 174.78125 C 143.636719 175.488281 143.886719 176.890625 143.183594 177.914062 C 141.398438 180.515625 138.246094 185.777344 136.410156 192.753906 C 133.082031 205.4375 135.371094 217.847656 143.21875 229.679688 C 143.957031 230.792969 143.621094 232.300781 142.46875 232.980469 Z M 192.679688 148.355469 L 192.679688 142.175781 C 192.679688 139.660156 191.542969 137.597656 190.15625 137.597656 L 163.765625 137.597656 C 162.378906 137.597656 161.242188 139.660156 161.242188 142.175781 L 161.242188 148.355469 C 136.808594 155.21875 118.890625 177.6875 118.890625 204.347656 C 118.890625 236.464844 144.890625 262.5 176.960938 262.5 C 209.035156 262.5 235.035156 236.464844 235.035156 204.347656 C 235.035156 177.6875 217.113281 155.21875 192.679688 148.355469 " fill-opacity="1" fill-rule="nonzero"/></g><path fill="#fbcf00" d="M 234.972656 129.269531 L 225.144531 115.476562 L 233.316406 130.1875 Z M 234.972656 129.269531 " fill-opacity="1" fill-rule="nonzero"/><path fill="#fbcf00" d="M 233.109375 131.066406 L 216.5625 127.511719 L 232.5 132.863281 Z M 233.109375 131.066406 " fill-opacity="1" fill-rule="nonzero"/><path fill="#fbcf00" d="M 218.695312 142.972656 L 233.511719 135.023438 L 232.621094 133.351562 Z M 218.695312 142.972656 " fill-opacity="1" fill-rule="nonzero"/><g clip-path="url(#4412f4cf30)"><path fill="#fbcf00" d="M 237.59375 112.496094 L 235.820312 129.234375 L 237.703125 129.441406 Z M 237.59375 112.496094 " fill-opacity="1" fill-rule="nonzero"/></g><path fill="#fbcf00" d="M 249.214844 116.484375 L 238.78125 129.683594 L 240.261719 130.867188 Z M 249.214844 116.484375 " fill-opacity="1" fill-rule="nonzero"/><g clip-path="url(#6c6cff2693)"><path fill="#fbcf00" d="M 241.066406 133.351562 L 255.824219 125.058594 L 240.335938 131.601562 Z M 241.066406 133.351562 " fill-opacity="1" fill-rule="nonzero"/></g><g clip-path="url(#7c84fec7fe)"><path fill="#fbcf00" d="M 241.140625 133.789062 L 240.234375 135.449219 L 255.925781 141.789062 Z M 241.140625 133.789062 " fill-opacity="1" fill-rule="nonzero"/></g></svg>