<svg width="424" height="91" viewBox="0 0 424 91" fill="none" xmlns="http://www.w3.org/2000/svg">
<path d="M75.6113 50.0844V21.3552H81.1113V45.1261H93.5072V50.0844H75.6113Z" fill="white"/>
<path d="M108.952 38.2719C108.952 40.5375 109.588 42.3136 110.869 43.6052C112.161 44.8865 113.89 45.5219 116.057 45.5219C118.208 45.5219 119.911 44.8865 121.161 43.6052C122.411 42.3136 123.036 40.5375 123.036 38.2719V21.3552H128.515V38.2719C128.515 40.7615 128.004 42.9281 126.994 44.7719C125.994 46.6209 124.557 48.0375 122.682 49.0219C120.807 50.0115 118.598 50.5011 116.057 50.5011C113.473 50.5011 111.228 50.0115 109.327 49.0219C107.437 48.0375 105.984 46.6209 104.973 44.7719C103.958 42.9281 103.452 40.7615 103.452 38.2719V21.3552H108.952V38.2719Z" fill="white"/>
<path d="M161.972 29.6469C160.957 28.4698 159.753 27.5531 158.368 26.8969C156.993 26.2459 155.597 25.9177 154.181 25.9177C152.399 25.9177 150.769 26.3448 149.285 27.1886C147.811 28.0375 146.649 29.2094 145.806 30.7094C144.957 32.199 144.535 33.8292 144.535 35.6052C144.535 37.3865 144.957 39.0167 145.806 40.5011C146.649 41.9906 147.811 43.1625 149.285 44.0219C150.769 44.8865 152.399 45.3136 154.181 45.3136C155.54 45.3136 156.91 45.0167 158.285 44.4177C159.67 43.824 160.899 42.9906 161.972 41.9177L165.222 45.5219C163.707 47.0636 161.951 48.2823 159.951 49.1677C157.962 50.0584 155.941 50.5011 153.889 50.5011C151.123 50.5011 148.587 49.85 146.285 48.5427C143.993 47.225 142.186 45.4386 140.868 43.1886C139.561 40.9281 138.91 38.4281 138.91 35.6886C138.91 32.9542 139.576 30.4594 140.91 28.2094C142.253 25.9594 144.082 24.199 146.389 22.9177C148.707 21.6261 151.274 20.9802 154.097 20.9802C156.149 20.9802 158.16 21.3917 160.118 22.2094C162.087 23.0323 163.774 24.1677 165.181 25.6261L161.972 29.6469Z" fill="white"/>
<path d="M189.8 33.5011L201.55 50.0844H194.946L185.904 37.7719L181.383 42.7302V50.0844H175.883V21.3552H181.383V35.6886L194.362 21.3552H200.842L189.8 33.5011Z" fill="white"/>
<path d="M229.901 28.7511C228.427 27.8501 226.911 27.1574 225.359 26.6678C223.818 26.1678 222.463 25.9178 221.297 25.9178C219.974 25.9178 218.932 26.1678 218.172 26.6678C217.406 27.1574 217.026 27.8345 217.026 28.7095C217.026 29.5011 217.286 30.1678 217.818 30.7095C218.344 31.2407 219.01 31.6782 219.818 32.022C220.635 32.3553 221.74 32.7251 223.13 33.1261C225.073 33.7095 226.661 34.2876 227.901 34.8553C229.151 35.4282 230.213 36.272 231.088 37.397C231.963 38.522 232.401 40.0011 232.401 41.8345C232.401 43.5845 231.927 45.1157 230.984 46.4178C230.036 47.7095 228.74 48.7043 227.088 49.397C225.432 50.0793 223.536 50.4178 221.401 50.4178C219.161 50.4178 216.974 50.0011 214.838 49.1678C212.713 48.3345 210.849 47.2199 209.255 45.8136L211.568 41.147C213.01 42.4803 214.635 43.5324 216.443 44.2928C218.245 45.0584 219.927 45.4386 221.484 45.4386C223.026 45.4386 224.234 45.147 225.109 44.5636C225.984 43.9803 226.422 43.1834 226.422 42.1678C226.422 41.3501 226.151 40.6782 225.609 40.147C225.078 39.6053 224.406 39.1782 223.588 38.8553C222.766 38.522 221.641 38.147 220.213 37.7303C218.266 37.1626 216.677 36.6053 215.443 36.0636C214.219 35.5116 213.172 34.6782 212.297 33.5636C211.422 32.4543 210.984 30.9959 210.984 29.1886C210.984 27.522 211.427 26.0741 212.318 24.8345C213.203 23.5845 214.463 22.6209 216.088 21.9386C217.724 21.2459 219.609 20.897 221.734 20.897C223.594 20.897 225.432 21.1782 227.255 21.7303C229.073 22.272 230.698 23.0116 232.13 23.9386L229.901 28.7511Z" fill="white"/>
<path d="M255.563 21.3552C259.172 21.3552 261.969 22.2198 263.959 23.9386C265.943 25.6625 266.938 28.1 266.938 31.2511C266.938 34.5323 265.943 37.0792 263.959 38.8969C261.969 40.7198 259.172 41.6261 255.563 41.6261H249.271V50.0844H243.771V21.3552H255.563ZM255.271 36.7927C257.354 36.7927 258.943 36.3448 260.042 35.4386C261.151 34.5375 261.709 33.199 261.709 31.4177C261.709 29.6677 261.151 28.3552 260.042 27.4802C258.943 26.5948 257.354 26.1469 255.271 26.1469H249.271V36.7927H255.271Z" fill="white"/>
<path d="M277.633 50.0844V21.3552H283.133V50.0844H277.633Z" fill="white"/>
<path d="M316.391 41.1886V21.3552H321.724V50.0844H316.516L301.724 30.2927V50.0844H296.349V21.3552H301.579L316.391 41.1886Z" fill="white"/>
<path d="M347.692 21.3552C350.76 21.3552 353.176 22.0011 354.942 23.2927C356.702 24.574 357.588 26.324 357.588 28.5427C357.588 30.1261 357.14 31.4906 356.254 32.6261C355.364 33.7667 354.14 34.5219 352.588 34.8969C354.489 35.2615 355.984 36.0844 357.067 37.3761C358.15 38.6573 358.692 40.2511 358.692 42.1677C358.692 44.6261 357.739 46.5636 355.838 47.9802C353.931 49.3865 351.343 50.0844 348.067 50.0844H334.921V21.3552H347.692ZM347.4 33.0844C348.827 33.0844 349.947 32.7719 350.754 32.1469C351.556 31.5219 351.963 30.6469 351.963 29.5219C351.963 28.4281 351.556 27.5792 350.754 26.9802C349.947 26.3865 348.827 26.1 347.4 26.1261H340.421V33.0844H347.4ZM347.4 45.3136C349.15 45.3448 350.515 45.0167 351.504 44.3344C352.489 43.6573 352.984 42.699 352.984 41.4594C352.984 40.2927 352.489 39.3761 351.504 38.7094C350.515 38.0323 349.15 37.7042 347.4 37.7302H340.421V45.3136H347.4Z" fill="#FFDC25"/>
<path d="M370.178 50.0844V21.3552H391.241V26.1469H375.678V33.2511H389.637V38.0636H375.678V45.2927H391.741V50.0844H370.178Z" fill="#FFDC25"/>
<path d="M400.278 26.2302V21.3552H423.716V26.2302H414.757V50.0844H409.216V26.2302H400.278Z" fill="#FFDC25"/>
<mask id="mask0_2105_187" style="mask-type:luminance" maskUnits="userSpaceOnUse" x="0" y="0" width="63" height="91">
<path d="M0 0H63V91H0V0Z" fill="white"/>
</mask>
<g mask="url(#mask0_2105_187)">
<path d="M62.9948 90.9375L31.4948 60.4948L-0.00518799 90.9375V0.0625H62.9948V90.9375Z" fill="#FFC107"/>
</g>
<mask id="mask1_2105_187" style="mask-type:luminance" maskUnits="userSpaceOnUse" x="26" y="21" width="23" height="21">
<path d="M26.8646 21.4062H48.3855V41.4063H26.8646V21.4062Z" fill="white"/>
</mask>
<g mask="url(#mask1_2105_187)">
<path fill-rule="evenodd" clip-rule="evenodd" d="M48.3907 31.3126C48.3907 34.7032 47.25 37.7761 45.4063 40.0001C43.5625 42.224 33.6094 33.5001 30.7969 33.5001C27.9844 33.5001 32.849 42.224 31.0052 40.0001C29.1615 37.7761 28.0209 34.7032 28.0209 31.3126C28.0209 27.9167 29.1615 24.8438 31.0052 22.6199C32.849 20.3959 27.9844 30.1303 30.7969 30.1303C33.6094 30.1303 43.5625 20.3959 45.4063 22.6199C47.25 24.8438 48.3907 27.9167 48.3907 31.3126Z" fill="white"/>
</g>
<mask id="mask2_2105_187" style="mask-type:luminance" maskUnits="userSpaceOnUse" x="14" y="21" width="21" height="21">
<path d="M14.3854 21.4062H34.8645V41.4063H14.3854V21.4062Z" fill="white"/>
</mask>
<g mask="url(#mask2_2105_187)">
<path fill-rule="evenodd" clip-rule="evenodd" d="M14.3854 31.4792C14.3854 34.8699 15.526 37.9428 17.3698 40.1667C19.2135 42.3907 29.1666 33.6667 31.9791 33.6667C34.7864 33.6667 29.927 42.3907 31.7708 40.1667C33.6145 37.9428 34.7552 34.8699 34.7552 31.4792C34.7552 28.0834 33.6145 25.0157 31.7708 22.7917C29.927 20.5678 34.7864 30.3022 31.9791 30.3022C29.1666 30.3022 19.2135 20.5678 17.3698 22.7917C15.526 25.0157 14.3854 28.0834 14.3854 31.4792Z" fill="white"/>
</g>
<mask id="mask3_2105_187" style="mask-type:luminance" maskUnits="userSpaceOnUse" x="21" y="14" width="21" height="23">
<path d="M21.5312 14.4062H41.5313V36.0729H21.5312V14.4062Z" fill="white"/>
</mask>
<g mask="url(#mask3_2105_187)">
<path fill-rule="evenodd" clip-rule="evenodd" d="M31.2864 14.4114C34.6823 14.4114 37.75 15.5468 39.9739 17.3905C42.1979 19.2343 33.4739 29.1874 33.4739 31.9999C33.4739 34.8124 42.1979 29.953 39.9739 31.7968C37.75 33.6353 34.6823 34.776 31.2864 34.776C27.8958 34.776 24.8229 33.6353 22.5989 31.7968C20.375 29.953 30.1093 34.8124 30.1093 31.9999C30.1093 29.1874 20.375 19.2343 22.5989 17.3905C24.8229 15.5468 27.8958 14.4114 31.2864 14.4114Z" fill="white"/>
</g>
<mask id="mask4_2105_187" style="mask-type:luminance" maskUnits="userSpaceOnUse" x="21" y="26" width="21" height="23">
<path d="M21.5312 26.7397H41.5313V48.4064H21.5312V26.7397Z" fill="white"/>
</mask>
<g mask="url(#mask4_2105_187)">
<path fill-rule="evenodd" clip-rule="evenodd" d="M31.4531 48.4115C34.849 48.4115 37.9219 47.2709 40.1458 45.4272C42.3698 43.5886 33.6458 33.6355 33.6458 30.823C33.6458 28.0105 42.3698 32.8699 40.1458 31.0261C37.9219 29.1824 34.849 28.0417 31.4531 28.0417C28.0625 28.0417 24.9896 29.1824 22.7656 31.0261C20.5417 32.8699 30.276 28.0105 30.276 30.823C30.276 33.6355 20.5417 43.5886 22.7656 45.4272C24.9896 47.2709 28.0625 48.4115 31.4531 48.4115Z" fill="white"/>
</g>
</svg>
