<svg xmlns="http://www.w3.org/2000/svg" xmlns:xlink="http://www.w3.org/1999/xlink" width="500" zoomAndPan="magnify" viewBox="0 0 375 374.999991" height="500" preserveAspectRatio="xMidYMid meet" version="1.0"><defs><clipPath id="9fd3baa426"><path d="M 112.5 112.5 L 262.5 112.5 L 262.5 262.5 L 112.5 262.5 Z M 112.5 112.5 " clip-rule="nonzero"/></clipPath></defs><rect x="-37.5" width="450" fill="#ffffff" y="-37.499999" height="449.999989" fill-opacity="1"/><rect x="-37.5" width="450" fill="#ffffff" y="-37.499999" height="449.999989" fill-opacity="1"/><rect x="-37.5" width="450" fill="#000000" y="-37.499999" height="449.999989" fill-opacity="1"/><g clip-path="url(#9fd3baa426)"><path fill="#fbcf00" d="M 187.5 112.5 C 186.273438 112.5 185.046875 112.53125 183.820312 112.589844 C 182.59375 112.652344 181.371094 112.742188 180.148438 112.859375 C 178.925781 112.980469 177.710938 113.132812 176.496094 113.3125 C 175.28125 113.492188 174.070312 113.703125 172.867188 113.941406 C 171.664062 114.179688 170.46875 114.449219 169.277344 114.746094 C 168.085938 115.046875 166.902344 115.375 165.730469 115.730469 C 164.554688 116.085938 163.390625 116.46875 162.234375 116.882812 C 161.078125 117.296875 159.933594 117.738281 158.796875 118.210938 C 157.664062 118.679688 156.542969 119.175781 155.433594 119.699219 C 154.324219 120.226562 153.226562 120.777344 152.144531 121.355469 C 151.0625 121.933594 149.996094 122.539062 148.941406 123.171875 C 147.890625 123.800781 146.851562 124.457031 145.832031 125.140625 C 144.8125 125.820312 143.808594 126.527344 142.824219 127.257812 C 141.835938 127.992188 140.871094 128.746094 139.921875 129.523438 C 138.972656 130.304688 138.042969 131.105469 137.132812 131.929688 C 136.222656 132.753906 135.335938 133.597656 134.46875 134.46875 C 133.597656 135.335938 132.753906 136.222656 131.929688 137.132812 C 131.105469 138.042969 130.304688 138.972656 129.523438 139.921875 C 128.746094 140.871094 127.992188 141.835938 127.257812 142.824219 C 126.527344 143.808594 125.820312 144.8125 125.140625 145.832031 C 124.457031 146.851562 123.800781 147.890625 123.171875 148.941406 C 122.539062 149.996094 121.933594 151.0625 121.355469 152.144531 C 120.777344 153.226562 120.226562 154.324219 119.699219 155.433594 C 119.175781 156.542969 118.679688 157.664062 118.210938 158.796875 C 117.738281 159.933594 117.296875 161.078125 116.882812 162.234375 C 116.46875 163.390625 116.085938 164.554688 115.730469 165.730469 C 115.375 166.902344 115.046875 168.085938 114.746094 169.277344 C 114.449219 170.46875 114.179688 171.664062 113.941406 172.867188 C 113.703125 174.070312 113.492188 175.28125 113.3125 176.496094 C 113.132812 177.710938 112.980469 178.925781 112.859375 180.148438 C 112.742188 181.371094 112.652344 182.59375 112.589844 183.820312 C 112.53125 185.046875 112.5 186.273438 112.5 187.5 C 112.5 188.726562 112.53125 189.953125 112.589844 191.179688 C 112.652344 192.40625 112.742188 193.628906 112.859375 194.851562 C 112.980469 196.074219 113.132812 197.289062 113.3125 198.503906 C 113.492188 199.71875 113.703125 200.929688 113.941406 202.132812 C 114.179688 203.335938 114.449219 204.53125 114.746094 205.722656 C 115.046875 206.914062 115.375 208.097656 115.730469 209.269531 C 116.085938 210.445312 116.46875 211.609375 116.882812 212.765625 C 117.296875 213.921875 117.738281 215.066406 118.210938 216.203125 C 118.679688 217.335938 119.175781 218.457031 119.699219 219.566406 C 120.226562 220.675781 120.777344 221.773438 121.355469 222.855469 C 121.933594 223.9375 122.539062 225.003906 123.171875 226.058594 C 123.800781 227.109375 124.457031 228.148438 125.140625 229.167969 C 125.820312 230.1875 126.527344 231.191406 127.257812 232.175781 C 127.992188 233.164062 128.746094 234.128906 129.523438 235.078125 C 130.304688 236.027344 131.105469 236.957031 131.929688 237.867188 C 132.753906 238.777344 133.597656 239.664062 134.46875 240.53125 C 135.335938 241.402344 136.222656 242.246094 137.132812 243.070312 C 138.042969 243.894531 138.972656 244.695312 139.921875 245.476562 C 140.871094 246.253906 141.835938 247.007812 142.824219 247.742188 C 143.808594 248.472656 144.8125 249.179688 145.832031 249.859375 C 146.851562 250.542969 147.890625 251.199219 148.941406 251.828125 C 149.996094 252.460938 151.0625 253.066406 152.144531 253.644531 C 153.226562 254.222656 154.324219 254.773438 155.433594 255.300781 C 156.542969 255.824219 157.664062 256.320312 158.796875 256.789062 C 159.933594 257.261719 161.078125 257.703125 162.234375 258.117188 C 163.390625 258.527344 164.554688 258.914062 165.730469 259.269531 C 166.902344 259.625 168.085938 259.953125 169.277344 260.253906 C 170.46875 260.550781 171.664062 260.820312 172.867188 261.058594 C 174.070312 261.296875 175.28125 261.507812 176.496094 261.6875 C 177.710938 261.867188 178.925781 262.019531 180.148438 262.140625 C 181.371094 262.257812 182.59375 262.347656 183.820312 262.410156 C 185.046875 262.46875 186.273438 262.5 187.5 262.5 C 188.726562 262.5 189.953125 262.46875 191.179688 262.410156 C 192.40625 262.347656 193.628906 262.257812 194.851562 262.140625 C 196.074219 262.019531 197.289062 261.867188 198.503906 261.6875 C 199.71875 261.507812 200.929688 261.296875 202.132812 261.058594 C 203.335938 260.820312 204.53125 260.550781 205.722656 260.253906 C 206.914062 259.953125 208.097656 259.625 209.269531 259.269531 C 210.445312 258.914062 211.609375 258.527344 212.765625 258.117188 C 213.921875 257.703125 215.066406 257.261719 216.203125 256.789062 C 217.335938 256.320312 218.457031 255.824219 219.566406 255.300781 C 220.675781 254.773438 221.773438 254.222656 222.855469 253.644531 C 223.9375 253.066406 225.003906 252.460938 226.058594 251.828125 C 227.109375 251.199219 228.148438 250.542969 229.167969 249.859375 C 230.1875 249.179688 231.191406 248.472656 232.175781 247.742188 C 233.164062 247.007812 234.128906 246.253906 235.078125 245.476562 C 236.027344 244.695312 236.957031 243.894531 237.867188 243.070312 C 238.777344 242.246094 239.664062 241.402344 240.53125 240.53125 C 241.402344 239.664062 242.246094 238.777344 243.070312 237.867188 C 243.894531 236.957031 244.695312 236.027344 245.476562 235.078125 C 246.253906 234.128906 247.007812 233.164062 247.742188 232.175781 C 248.472656 231.191406 249.179688 230.1875 249.859375 229.167969 C 250.542969 228.148438 251.199219 227.109375 251.828125 226.058594 C 252.460938 225.003906 253.066406 223.9375 253.644531 222.855469 C 254.222656 221.773438 254.773438 220.675781 255.300781 219.566406 C 255.824219 218.457031 256.320312 217.335938 256.789062 216.203125 C 257.261719 215.066406 257.703125 213.921875 258.117188 212.765625 C 258.527344 211.609375 258.914062 210.445312 259.269531 209.269531 C 259.625 208.097656 259.953125 206.914062 260.253906 205.722656 C 260.550781 204.53125 260.820312 203.335938 261.058594 202.132812 C 261.296875 200.929688 261.507812 199.71875 261.6875 198.503906 C 261.867188 197.289062 262.019531 196.074219 262.140625 194.851562 C 262.257812 193.628906 262.347656 192.40625 262.410156 191.179688 C 262.46875 189.953125 262.5 188.726562 262.5 187.5 C 262.5 186.273438 262.46875 185.046875 262.410156 183.820312 C 262.347656 182.59375 262.257812 181.371094 262.136719 180.148438 C 262.015625 178.925781 261.867188 177.710938 261.6875 176.496094 C 261.507812 175.28125 261.296875 174.074219 261.058594 172.867188 C 260.816406 171.664062 260.546875 170.46875 260.25 169.277344 C 259.953125 168.085938 259.625 166.902344 259.269531 165.730469 C 258.910156 164.554688 258.527344 163.390625 258.113281 162.234375 C 257.699219 161.078125 257.257812 159.933594 256.789062 158.800781 C 256.320312 157.667969 255.820312 156.542969 255.296875 155.433594 C 254.773438 154.324219 254.21875 153.230469 253.640625 152.148438 C 253.0625 151.066406 252.457031 149.996094 251.828125 148.945312 C 251.195312 147.890625 250.539062 146.855469 249.855469 145.835938 C 249.175781 144.8125 248.46875 143.8125 247.738281 142.824219 C 247.007812 141.839844 246.25 140.871094 245.472656 139.921875 C 244.695312 138.972656 243.894531 138.046875 243.070312 137.136719 C 242.246094 136.226562 241.398438 135.335938 240.53125 134.46875 C 239.664062 133.601562 238.773438 132.753906 237.863281 131.929688 C 236.953125 131.105469 236.027344 130.304688 235.078125 129.527344 C 234.128906 128.75 233.160156 127.992188 232.175781 127.261719 C 231.1875 126.53125 230.1875 125.824219 229.164062 125.144531 C 228.144531 124.460938 227.109375 123.804688 226.054688 123.171875 C 225.003906 122.542969 223.933594 121.9375 222.851562 121.359375 C 221.769531 120.78125 220.675781 120.226562 219.566406 119.703125 C 218.457031 119.179688 217.332031 118.679688 216.199219 118.210938 C 215.066406 117.742188 213.921875 117.300781 212.765625 116.886719 C 211.609375 116.472656 210.445312 116.089844 209.269531 115.730469 C 208.097656 115.375 206.914062 115.046875 205.722656 114.75 C 204.53125 114.449219 203.335938 114.183594 202.132812 113.941406 C 200.925781 113.703125 199.71875 113.492188 198.503906 113.3125 C 197.289062 113.132812 196.074219 112.984375 194.851562 112.863281 C 193.628906 112.742188 192.40625 112.652344 191.179688 112.589844 C 189.953125 112.53125 188.726562 112.5 187.5 112.5 Z M 211.734375 167.742188 C 211.734375 168.535156 211.695312 169.328125 211.617188 170.117188 C 211.539062 170.90625 211.421875 171.691406 211.269531 172.46875 C 211.113281 173.25 210.921875 174.015625 210.691406 174.777344 C 210.460938 175.535156 210.191406 176.28125 209.890625 177.015625 C 209.585938 177.75 209.246094 178.464844 208.871094 179.167969 C 208.5 179.867188 208.089844 180.546875 207.648438 181.207031 C 207.210938 181.867188 206.738281 182.503906 206.234375 183.117188 C 205.730469 183.730469 205.199219 184.316406 204.636719 184.878906 C 204.074219 185.441406 203.488281 185.972656 202.875 186.476562 C 202.261719 186.980469 201.625 187.453125 200.964844 187.890625 C 200.304688 188.332031 199.625 188.742188 198.925781 189.113281 C 198.222656 189.488281 197.507812 189.828125 196.773438 190.132812 C 196.039062 190.4375 195.292969 190.703125 194.535156 190.933594 C 193.773438 191.164062 193.007812 191.355469 192.226562 191.511719 C 191.449219 191.664062 190.664062 191.78125 189.875 191.859375 C 189.085938 191.9375 188.292969 191.976562 187.5 191.976562 C 186.707031 191.976562 185.914062 191.9375 185.125 191.859375 C 184.335938 191.78125 183.550781 191.664062 182.773438 191.511719 C 181.992188 191.355469 181.222656 191.164062 180.464844 190.933594 C 179.707031 190.703125 178.960938 190.4375 178.226562 190.132812 C 177.492188 189.828125 176.777344 189.488281 176.074219 189.113281 C 175.375 188.742188 174.695312 188.332031 174.035156 187.890625 C 173.375 187.453125 172.738281 186.980469 172.125 186.476562 C 171.511719 185.972656 170.925781 185.441406 170.363281 184.878906 C 169.800781 184.316406 169.269531 183.730469 168.765625 183.117188 C 168.261719 182.503906 167.789062 181.867188 167.351562 181.207031 C 166.910156 180.546875 166.5 179.867188 166.128906 179.167969 C 165.753906 178.464844 165.414062 177.75 165.109375 177.015625 C 164.804688 176.28125 164.539062 175.535156 164.308594 174.777344 C 164.078125 174.015625 163.886719 173.25 163.730469 172.46875 C 163.578125 171.691406 163.460938 170.90625 163.382812 170.117188 C 163.304688 169.328125 163.265625 168.535156 163.265625 167.742188 C 164.601562 135.609375 210.398438 135.609375 211.734375 167.742188 Z M 232.804688 222.609375 C 232.179688 223.921875 231.378906 225.121094 230.414062 226.210938 C 229.445312 227.296875 228.34375 228.226562 227.113281 229 C 225.878906 229.773438 224.5625 230.359375 223.164062 230.761719 C 221.765625 231.160156 220.339844 231.359375 218.882812 231.351562 L 156.117188 231.351562 C 154.660156 231.347656 153.230469 231.144531 151.832031 230.742188 C 150.433594 230.335938 149.117188 229.746094 147.882812 228.96875 C 146.652344 228.191406 145.550781 227.261719 144.578125 226.171875 C 143.609375 225.085938 142.808594 223.886719 142.175781 222.574219 C 141.546875 221.261719 141.109375 219.886719 140.863281 218.449219 C 140.621094 217.011719 140.582031 215.570312 140.746094 214.121094 C 140.90625 212.675781 141.269531 211.277344 141.824219 209.929688 C 142.382812 208.585938 143.117188 207.34375 144.023438 206.203125 C 147.226562 202.332031 150.921875 199.011719 155.109375 196.234375 C 159.296875 193.460938 163.796875 191.355469 168.609375 189.914062 C 169.910156 191.039062 171.296875 192.035156 172.777344 192.910156 C 174.253906 193.785156 175.800781 194.523438 177.410156 195.121094 C 179.019531 195.71875 180.671875 196.167969 182.363281 196.472656 C 184.054688 196.773438 185.757812 196.925781 187.476562 196.921875 L 187.570312 196.921875 C 189.285156 196.921875 190.984375 196.769531 192.671875 196.46875 C 194.359375 196.164062 196.003906 195.710938 197.613281 195.113281 C 199.21875 194.515625 200.757812 193.78125 202.234375 192.90625 C 203.707031 192.03125 205.09375 191.035156 206.390625 189.914062 C 211.203125 191.355469 215.703125 193.460938 219.890625 196.234375 C 224.078125 199.011719 227.773438 202.332031 230.976562 206.203125 C 231.894531 207.339844 232.632812 208.585938 233.195312 209.9375 C 233.757812 211.285156 234.117188 212.6875 234.28125 214.140625 C 234.441406 215.59375 234.398438 217.039062 234.148438 218.480469 C 233.894531 219.921875 233.449219 221.296875 232.804688 222.609375 Z M 232.804688 222.609375 " fill-opacity="1" fill-rule="nonzero"/></g></svg>