<svg xmlns="http://www.w3.org/2000/svg" xmlns:xlink="http://www.w3.org/1999/xlink" width="500" zoomAndPan="magnify" viewBox="0 0 375 374.999991" height="500" preserveAspectRatio="xMidYMid meet" version="1.0"><defs><clipPath id="e6390cc465"><path d="M 130.125 112.5 L 244.875 112.5 L 244.875 262.5 L 130.125 262.5 Z M 130.125 112.5 " clip-rule="nonzero"/></clipPath></defs><rect x="-37.5" width="450" fill="#ffffff" y="-37.499999" height="449.999989" fill-opacity="1"/><rect x="-37.5" width="450" fill="#ffffff" y="-37.499999" height="449.999989" fill-opacity="1"/><rect x="-37.5" width="450" fill="#000000" y="-37.499999" height="449.999989" fill-opacity="1"/><g clip-path="url(#e6390cc465)"><path fill="#fbcf00" d="M 187.515625 212.953125 C 162.816406 212.953125 142.722656 192.855469 142.722656 168.152344 C 142.722656 143.453125 162.816406 123.355469 187.515625 123.355469 C 212.21875 123.355469 232.316406 143.453125 232.316406 168.152344 C 232.316406 192.855469 212.21875 212.953125 187.515625 212.953125 Z M 223.105469 210.949219 C 235.375 200.738281 243.1875 185.363281 243.1875 168.152344 C 243.1875 137.40625 218.261719 112.484375 187.519531 112.484375 C 156.773438 112.484375 131.847656 137.40625 131.847656 168.152344 C 131.847656 185.363281 139.664062 200.738281 151.929688 210.949219 L 130.214844 245.976562 L 150.421875 243.097656 L 156.828125 262.480469 L 181.046875 223.417969 C 183.175781 223.664062 185.328125 223.824219 187.519531 223.824219 C 189.710938 223.824219 191.863281 223.664062 193.988281 223.417969 L 218.207031 262.480469 L 224.613281 243.097656 L 244.820312 245.976562 L 223.105469 210.949219 " fill-opacity="1" fill-rule="nonzero"/></g><path fill="#fbcf00" d="M 205.03125 193.097656 L 187.445312 183.78125 L 169.792969 192.996094 L 173.222656 173.386719 L 159.011719 159.445312 L 178.714844 156.644531 L 187.582031 138.816406 L 196.335938 156.691406 L 216.027344 159.609375 L 201.726562 173.46875 Z M 187.515625 130.859375 C 166.953125 130.859375 150.226562 147.589844 150.226562 168.152344 C 150.226562 188.71875 166.953125 205.445312 187.515625 205.445312 C 208.082031 205.445312 224.8125 188.71875 224.8125 168.152344 C 224.8125 147.589844 208.082031 130.859375 187.515625 130.859375 " fill-opacity="1" fill-rule="nonzero"/></svg>