<svg xmlns="http://www.w3.org/2000/svg" xmlns:xlink="http://www.w3.org/1999/xlink" width="500" zoomAndPan="magnify" viewBox="0 0 375 374.999991" height="500" preserveAspectRatio="xMidYMid meet" version="1.0"><defs><clipPath id="b3dd460525"><path d="M 112.5 112.5 L 262.5 112.5 L 262.5 262.5 L 112.5 262.5 Z M 112.5 112.5 " clip-rule="nonzero"/></clipPath></defs><rect x="-37.5" width="450" fill="#ffffff" y="-37.499999" height="449.999989" fill-opacity="1"/><rect x="-37.5" width="450" fill="#ffffff" y="-37.499999" height="449.999989" fill-opacity="1"/><rect x="-37.5" width="450" fill="#000000" y="-37.499999" height="449.999989" fill-opacity="1"/><g clip-path="url(#b3dd460525)"><path fill="#fbcf00" d="M 245.699219 112.5 C 220.765625 112.5 187.3125 129.605469 164.847656 159.011719 L 146.222656 159.011719 C 132.765625 159.011719 125.054688 169.054688 119.746094 179.679688 L 112.636719 193.894531 L 146.222656 193.894531 L 163.667969 211.335938 L 181.109375 228.777344 L 181.109375 262.367188 L 195.324219 255.261719 C 205.949219 249.949219 215.992188 242.234375 215.992188 228.777344 L 215.992188 210.15625 C 245.398438 187.691406 262.503906 154.238281 262.503906 129.304688 L 262.503906 112.5 Z M 215.992188 147.382812 C 222.414062 147.382812 227.621094 152.589844 227.621094 159.011719 C 227.621094 165.433594 222.414062 170.640625 215.992188 170.640625 C 209.570312 170.640625 204.363281 165.433594 204.363281 159.011719 C 204.363281 152.589844 209.570312 147.382812 215.992188 147.382812 Z M 140.410156 217.152344 L 134.597656 222.964844 C 126.199219 231.363281 122.96875 252.035156 122.96875 252.035156 C 122.96875 252.035156 142.710938 249.734375 152.039062 240.40625 L 157.851562 234.59375 Z M 140.410156 217.152344 " fill-opacity="1" fill-rule="nonzero"/></g></svg>