<svg xmlns="http://www.w3.org/2000/svg" xmlns:xlink="http://www.w3.org/1999/xlink" width="500" zoomAndPan="magnify" viewBox="0 0 375 374.999991" height="500" preserveAspectRatio="xMidYMid meet" version="1.0"><defs><clipPath id="c890c9a4b4"><path d="M 102 155 L 147 155 L 147 228.710938 L 102 228.710938 Z M 102 155 " clip-rule="nonzero"/></clipPath><clipPath id="a1785e7622"><path d="M 150 155 L 196 155 L 196 228.710938 L 150 228.710938 Z M 150 155 " clip-rule="nonzero"/></clipPath><clipPath id="f4e0fdc119"><path d="M 198 155 L 244 155 L 244 228.710938 L 198 228.710938 Z M 198 155 " clip-rule="nonzero"/></clipPath><clipPath id="0e48310705"><path d="M 247 121.460938 L 274 121.460938 L 274 196 L 247 196 Z M 247 121.460938 " clip-rule="nonzero"/></clipPath></defs><rect x="-37.5" width="450" fill="#ffffff" y="-37.499999" height="449.999989" fill-opacity="1"/><rect x="-37.5" width="450" fill="#ffffff" y="-37.499999" height="449.999989" fill-opacity="1"/><rect x="-37.5" width="450" fill="#000000" y="-37.499999" height="449.999989" fill-opacity="1"/><g clip-path="url(#c890c9a4b4)"><path fill="#fbcf00" d="M 111.542969 155.207031 C 106.300781 155.207031 102.035156 159.453125 102.035156 164.679688 L 102.035156 219.007812 C 102.035156 224.230469 106.300781 228.480469 111.542969 228.480469 L 146.652344 228.480469 L 146.652344 155.207031 Z M 137.539062 202.355469 C 136.121094 203.316406 134.421875 203.789062 132.652344 203.789062 C 132.003906 203.789062 131.351562 203.71875 130.6875 203.597656 L 133.726562 209.636719 C 134.019531 210.222656 133.992188 210.925781 133.648438 211.480469 C 133.300781 212.035156 132.691406 212.378906 132.027344 212.378906 L 116.648438 212.378906 C 115.988281 212.378906 115.378906 212.035156 115.027344 211.480469 C 114.683594 210.925781 114.652344 210.222656 114.949219 209.636719 L 117.988281 203.597656 C 117.332031 203.71875 116.679688 203.789062 116.03125 203.789062 C 114.257812 203.789062 112.5625 203.316406 111.136719 202.347656 C 107.101562 199.589844 105.871094 193.484375 106.4375 188.980469 C 107.164062 183.121094 111.070312 178 117.71875 174.160156 C 119.699219 173.011719 121.753906 172.09375 123.558594 171.273438 C 123.585938 171.265625 123.601562 171.265625 123.625 171.257812 C 123.75 171.207031 123.878906 171.195312 124.019531 171.175781 C 124.128906 171.15625 124.238281 171.113281 124.347656 171.113281 C 124.457031 171.113281 124.566406 171.15625 124.671875 171.175781 C 124.804688 171.199219 124.945312 171.214844 125.074219 171.257812 C 125.085938 171.265625 125.109375 171.265625 125.132812 171.273438 C 126.953125 172.097656 129.007812 173.019531 130.972656 174.160156 C 137.625 178 141.523438 183.121094 142.253906 188.980469 C 142.808594 193.492188 141.578125 199.597656 137.539062 202.355469 Z M 137.539062 202.355469 " fill-opacity="1" fill-rule="nonzero"/></g><g clip-path="url(#a1785e7622)"><path fill="#fbcf00" d="M 150.453125 155.207031 L 150.453125 228.480469 L 195.070312 228.480469 L 195.070312 155.207031 Z M 185.960938 202.355469 C 184.542969 203.316406 182.847656 203.789062 181.074219 203.789062 C 180.425781 203.789062 179.773438 203.71875 179.121094 203.597656 L 182.15625 209.636719 C 182.445312 210.222656 182.417969 210.925781 182.078125 211.480469 C 181.726562 212.035156 181.121094 212.378906 180.457031 212.378906 L 165.078125 212.378906 C 164.417969 212.378906 163.808594 212.035156 163.457031 211.480469 C 163.109375 210.925781 163.078125 210.222656 163.378906 209.636719 L 166.417969 203.597656 C 165.761719 203.71875 165.101562 203.789062 164.453125 203.789062 C 162.683594 203.789062 160.984375 203.316406 159.566406 202.355469 C 155.523438 199.59375 154.289062 193.492188 154.859375 188.984375 C 155.585938 183.117188 159.496094 178 166.144531 174.164062 C 168.117188 173.023438 170.175781 172.101562 171.980469 171.277344 C 172.011719 171.265625 172.042969 171.269531 172.0625 171.257812 C 172.144531 171.226562 172.238281 171.21875 172.324219 171.199219 C 172.480469 171.160156 172.628906 171.117188 172.78125 171.117188 C 172.863281 171.117188 172.9375 171.152344 173.019531 171.164062 C 173.183594 171.1875 173.339844 171.207031 173.496094 171.261719 C 173.507812 171.269531 173.53125 171.265625 173.546875 171.273438 C 175.457031 172.140625 177.429688 173.027344 179.386719 174.160156 C 186.039062 177.996094 189.933594 183.117188 190.667969 188.980469 C 191.238281 193.492188 189.996094 199.597656 185.960938 202.355469 Z M 185.960938 202.355469 " fill-opacity="1" fill-rule="nonzero"/></g><g clip-path="url(#f4e0fdc119)"><path fill="#fbcf00" d="M 233.992188 155.207031 L 198.878906 155.207031 L 198.878906 228.480469 L 233.988281 228.480469 C 239.230469 228.480469 243.496094 224.230469 243.496094 219.007812 L 243.496094 164.679688 C 243.5 159.453125 239.234375 155.207031 233.992188 155.207031 Z M 234.386719 202.355469 C 232.960938 203.316406 231.273438 203.789062 229.492188 203.789062 C 228.84375 203.789062 228.191406 203.71875 227.539062 203.597656 L 230.574219 209.636719 C 230.863281 210.222656 230.835938 210.925781 230.496094 211.480469 C 230.144531 212.035156 229.539062 212.378906 228.875 212.378906 L 213.5 212.378906 C 212.835938 212.378906 212.230469 212.035156 211.875 211.480469 C 211.527344 210.925781 211.496094 210.222656 211.796875 209.636719 L 214.839844 203.597656 C 214.179688 203.71875 213.519531 203.789062 212.871094 203.789062 C 211.101562 203.789062 209.402344 203.316406 207.984375 202.355469 C 203.941406 199.59375 202.710938 193.492188 203.28125 188.984375 C 204.003906 183.128906 207.910156 178.003906 214.566406 174.164062 C 216.546875 173.015625 218.601562 172.097656 220.402344 171.277344 C 220.425781 171.269531 220.449219 171.273438 220.464844 171.261719 C 220.589844 171.210938 220.730469 171.195312 220.871094 171.179688 C 220.96875 171.15625 221.078125 171.117188 221.191406 171.117188 C 221.289062 171.117188 221.398438 171.160156 221.507812 171.179688 C 221.644531 171.203125 221.78125 171.21875 221.90625 171.261719 C 221.925781 171.269531 221.949219 171.269531 221.96875 171.277344 C 223.792969 172.101562 225.847656 173.023438 227.8125 174.164062 C 234.460938 178 238.355469 183.121094 239.097656 188.984375 C 239.65625 193.492188 238.425781 199.601562 234.386719 202.355469 Z M 234.386719 202.355469 " fill-opacity="1" fill-rule="nonzero"/></g><g clip-path="url(#0e48310705)"><path fill="#fbcf00" d="M 273.664062 133.9375 C 273.664062 126.976562 267.984375 121.3125 261 121.3125 C 254.011719 121.3125 248.328125 126.976562 248.328125 133.9375 C 248.328125 139.566406 252.066406 144.292969 257.199219 145.914062 L 257.199219 184.257812 C 257.199219 186.351562 255.492188 188.046875 253.394531 188.046875 L 247.296875 188.046875 L 247.296875 195.628906 L 253.394531 195.628906 C 259.683594 195.628906 264.804688 190.523438 264.804688 184.257812 L 264.804688 145.917969 C 269.917969 144.296875 273.664062 139.570312 273.664062 133.9375 Z M 273.664062 133.9375 " fill-opacity="1" fill-rule="nonzero"/></g></svg>