<svg xmlns="http://www.w3.org/2000/svg" xmlns:xlink="http://www.w3.org/1999/xlink" width="500" zoomAndPan="magnify" viewBox="0 0 375 374.999991" height="500" preserveAspectRatio="xMidYMid meet" version="1.0"><defs><clipPath id="932b9fb17f"><path d="M 150 112.5 L 225 112.5 L 225 183 L 150 183 Z M 150 112.5 " clip-rule="nonzero"/></clipPath><clipPath id="00f6f904f8"><path d="M 106.214844 273 L 108 273 L 108 275.25 L 106.214844 275.25 Z M 106.214844 273 " clip-rule="nonzero"/></clipPath><clipPath id="4a403cc53f"><path d="M 106.214844 210 L 268.964844 210 L 268.964844 275 L 106.214844 275 Z M 106.214844 210 " clip-rule="nonzero"/></clipPath></defs><rect x="-37.5" width="450" fill="#ffffff" y="-37.499999" height="449.999989" fill-opacity="1"/><rect x="-37.5" width="450" fill="#ffffff" y="-37.499999" height="449.999989" fill-opacity="1"/><rect x="-37.5" width="450" fill="#000000" y="-37.499999" height="449.999989" fill-opacity="1"/><path fill="#fbcf00" d="M 179.964844 135.207031 C 188 137.976562 208.203125 135.257812 210.84375 147.769531 C 211.027344 146.332031 211.125 144.972656 211.125 143.726562 C 211.125 130.585938 204.902344 119.785156 187.601562 119.808594 C 182.636719 119.8125 174.710938 119.503906 174.90625 124.128906 C 175.074219 128.035156 175.820312 133.777344 179.964844 135.207031 " fill-opacity="1" fill-rule="nonzero"/><path fill="#fbcf00" d="M 174.492188 130.90625 C 174.253906 128.683594 173.910156 125.90625 173.753906 124.5 C 169.851562 119.910156 162.679688 135.371094 164.082031 143.726562 C 164.082031 144.152344 164.097656 144.59375 164.117188 145.042969 C 169.558594 141.984375 174.960938 135.261719 174.492188 130.90625 " fill-opacity="1" fill-rule="nonzero"/><path fill="#fbcf00" d="M 191.429688 190.777344 L 191.429688 186.894531 C 191.429688 185.824219 190.558594 184.953125 189.484375 184.953125 L 184.84375 184.953125 C 183.769531 184.953125 182.898438 185.824219 182.898438 186.894531 L 182.898438 190.777344 C 182.898438 191.851562 183.769531 192.71875 184.84375 192.71875 L 189.484375 192.71875 C 190.558594 192.71875 191.429688 191.851562 191.429688 190.777344 " fill-opacity="1" fill-rule="nonzero"/><path fill="#fbcf00" d="M 181.582031 185.800781 L 170.640625 180.894531 C 170.277344 180.734375 169.871094 180.996094 169.871094 181.390625 L 169.871094 196.285156 C 169.871094 196.675781 170.277344 196.941406 170.640625 196.777344 L 181.582031 191.871094 C 181.464844 191.527344 181.398438 191.160156 181.398438 190.777344 L 181.398438 186.894531 C 181.398438 186.515625 181.464844 186.144531 181.582031 185.800781 " fill-opacity="1" fill-rule="nonzero"/><path fill="#fbcf00" d="M 192.929688 186.894531 L 192.929688 190.777344 C 192.929688 191.160156 192.863281 191.527344 192.75 191.871094 L 203.691406 196.777344 C 204.050781 196.941406 204.457031 196.675781 204.457031 196.285156 L 204.457031 181.390625 C 204.457031 180.996094 204.050781 180.734375 203.691406 180.894531 L 192.75 185.800781 C 192.863281 186.144531 192.929688 186.515625 192.929688 186.894531 " fill-opacity="1" fill-rule="nonzero"/><path fill="#fbcf00" d="M 191.921875 208.097656 L 234.699219 208.097656 C 230.519531 193.878906 219.28125 182.683594 205.023438 178.527344 L 204.453125 179.429688 C 205.316406 179.664062 205.953125 180.453125 205.953125 181.390625 L 205.953125 196.285156 C 205.953125 196.839844 205.734375 197.359375 205.335938 197.746094 C 204.949219 198.117188 204.445312 198.320312 203.914062 198.320312 C 203.625 198.320312 203.34375 198.257812 203.078125 198.140625 L 194.921875 194.484375 L 193.78125 196.289062 L 191.921875 193.46875 L 191.921875 208.097656 " fill-opacity="1" fill-rule="nonzero"/><path fill="#fbcf00" d="M 183.285156 193.839844 C 183.226562 193.808594 183.164062 193.777344 183.105469 193.742188 L 181.425781 196.289062 L 180.089844 194.179688 L 171.253906 198.140625 C 170.988281 198.257812 170.703125 198.320312 170.417969 198.320312 L 170.414062 198.320312 C 169.289062 198.320312 168.375 197.40625 168.375 196.285156 L 168.375 181.390625 C 168.375 180.265625 169.289062 179.355469 170.417969 179.355469 C 170.519531 179.355469 170.621094 179.363281 170.722656 179.378906 L 170.183594 178.527344 C 155.925781 182.683594 144.6875 193.878906 140.507812 208.097656 L 183.285156 208.097656 L 183.285156 193.839844 " fill-opacity="1" fill-rule="nonzero"/><path fill="#fbcf00" d="M 185.273438 208.097656 L 189.929688 208.097656 L 189.929688 194.183594 C 189.785156 194.203125 189.636719 194.214844 189.484375 194.214844 L 185.273438 194.214844 L 185.273438 208.097656 " fill-opacity="1" fill-rule="nonzero"/><path fill="#fbcf00" d="M 173.398438 177.710938 C 172.996094 177.796875 172.601562 177.902344 172.203125 178 L 173.933594 180.734375 L 179.550781 183.253906 C 177.351562 181.867188 175.289062 179.964844 173.398438 177.710938 " fill-opacity="1" fill-rule="nonzero"/><path fill="#fbcf00" d="M 201.808594 177.710938 C 200.378906 179.417969 198.847656 180.921875 197.234375 182.152344 L 201.617188 180.1875 L 203.003906 178 C 202.605469 177.902344 202.210938 177.796875 201.808594 177.710938 " fill-opacity="1" fill-rule="nonzero"/><g clip-path="url(#932b9fb17f)"><path fill="#fbcf00" d="M 152.402344 156.496094 C 153.539062 160.625 157.300781 163.339844 161.398438 163.339844 C 161.625 163.339844 161.847656 163.328125 162.074219 163.3125 C 162.671875 163.273438 163.273438 163.171875 163.875 163.003906 C 164.601562 162.804688 165.285156 162.527344 165.917969 162.175781 C 164.878906 159.472656 164.007812 156.730469 163.328125 154.082031 L 163.292969 149.71875 C 163.207031 149.203125 162.71875 148.792969 162.199219 148.769531 C 161.824219 146.5 161.628906 144.390625 161.628906 142.546875 L 161.628906 142.5 C 161.628906 141.308594 161.707031 140.132812 161.863281 138.980469 C 162.171875 136.660156 162.78125 134.445312 163.652344 132.367188 C 164.953125 129.253906 166.835938 126.453125 169.160156 124.101562 C 171.488281 121.742188 174.253906 119.839844 177.324219 118.527344 C 180.394531 117.210938 183.769531 116.488281 187.316406 116.488281 C 190.863281 116.488281 194.230469 117.210938 197.300781 118.527344 C 200.371094 119.839844 203.132812 121.742188 205.464844 124.101562 C 207.792969 126.453125 209.671875 129.253906 210.972656 132.367188 C 211.84375 134.445312 212.453125 136.660156 212.761719 138.980469 C 212.917969 140.132812 212.996094 141.308594 212.996094 142.5 L 212.996094 142.582031 C 212.996094 147.808594 211.417969 155.101562 208.714844 162.175781 C 208.953125 162.308594 209.203125 162.425781 209.457031 162.535156 C 209.65625 162.621094 209.859375 162.699219 210.070312 162.773438 C 210.054688 162.785156 210.039062 162.800781 210.023438 162.8125 C 209.253906 163.480469 208.425781 164.113281 207.550781 164.710938 C 207.542969 164.714844 207.539062 164.71875 207.53125 164.722656 C 207.09375 165.023438 206.640625 165.3125 206.179688 165.589844 C 205.839844 165.796875 205.488281 165.996094 205.136719 166.1875 C 207.371094 161.609375 209.082031 156.628906 210.089844 152.058594 C 209.996094 150.691406 209.777344 149.34375 209.394531 148.074219 C 209.078125 147.042969 208.652344 146.066406 208.097656 145.171875 C 207.71875 152.003906 204.777344 161.121094 200.644531 168.226562 C 197.949219 169.199219 195.183594 169.769531 192.644531 169.8125 C 192.179688 168.125 190.632812 166.886719 188.792969 166.886719 L 185.832031 166.886719 C 183.621094 166.886719 181.832031 168.671875 181.832031 170.875 C 181.832031 173.082031 183.621094 174.867188 185.832031 174.867188 L 188.792969 174.867188 C 190.433594 174.867188 191.839844 173.882812 192.457031 172.476562 C 194.402344 172.460938 196.414062 172.183594 198.417969 171.6875 C 195.144531 176.257812 191.363281 179.375 187.601562 179.375 C 177.71875 179.375 167.683594 157.84375 167.09375 144.890625 C 166.355469 145.433594 165.601562 145.921875 164.851562 146.34375 L 164.238281 146.6875 C 165.585938 160.347656 175.535156 182.351562 187.601562 182.351562 C 193.488281 182.351562 198.871094 177.117188 202.996094 170.167969 C 204.019531 169.742188 205.023438 169.273438 205.996094 168.753906 C 206.628906 168.414062 207.242188 168.054688 207.847656 167.679688 C 208.015625 167.578125 208.171875 167.472656 208.332031 167.371094 C 208.796875 167.070312 209.25 166.761719 209.695312 166.445312 C 209.835938 166.34375 209.976562 166.246094 210.113281 166.140625 C 210.652344 165.742188 211.175781 165.328125 211.675781 164.898438 C 211.695312 164.878906 211.71875 164.863281 211.738281 164.847656 C 212.304688 164.359375 212.84375 163.855469 213.351562 163.332031 C 215.125 163.308594 216.828125 162.78125 218.277344 161.851562 C 218.28125 161.851562 218.28125 161.847656 218.28125 161.847656 C 218.488281 161.71875 218.6875 161.578125 218.882812 161.429688 C 218.894531 161.417969 218.90625 161.40625 218.921875 161.398438 C 219.101562 161.257812 219.28125 161.113281 219.449219 160.960938 C 219.476562 160.9375 219.5 160.914062 219.523438 160.890625 C 219.683594 160.746094 219.835938 160.601562 219.984375 160.445312 C 220.023438 160.40625 220.054688 160.363281 220.089844 160.324219 C 220.222656 160.179688 220.351562 160.039062 220.476562 159.890625 C 220.523438 159.828125 220.570312 159.761719 220.617188 159.703125 C 220.722656 159.566406 220.828125 159.429688 220.925781 159.289062 C 220.984375 159.203125 221.03125 159.117188 221.089844 159.03125 C 221.167969 158.902344 221.253906 158.777344 221.328125 158.644531 C 221.390625 158.539062 221.441406 158.425781 221.5 158.316406 C 221.558594 158.199219 221.625 158.085938 221.683594 157.964844 C 221.75 157.820312 221.808594 157.667969 221.867188 157.515625 C 221.902344 157.425781 221.945312 157.339844 221.980469 157.246094 C 222.070312 157.003906 222.152344 156.75 222.222656 156.496094 L 223.871094 150.511719 C 225.234375 145.554688 222.3125 140.429688 217.34375 139.070312 C 217.15625 139.023438 216.972656 138.976562 216.785156 138.9375 C 216.453125 136.09375 215.730469 133.378906 214.667969 130.832031 C 213.164062 127.246094 210.992188 124.011719 208.3125 121.300781 C 205.632812 118.585938 202.429688 116.382812 198.871094 114.863281 C 195.324219 113.34375 191.410156 112.5 187.316406 112.5 C 183.21875 112.5 179.304688 113.34375 175.75 114.863281 C 172.195312 116.382812 168.996094 118.585938 166.3125 121.300781 C 163.628906 124.011719 161.460938 127.246094 159.957031 130.832031 C 158.894531 133.378906 158.171875 136.09375 157.839844 138.9375 C 157.652344 138.976562 157.46875 139.023438 157.285156 139.070312 C 152.3125 140.429688 149.394531 145.554688 150.757812 150.511719 L 152.402344 156.496094 " fill-opacity="1" fill-rule="nonzero"/></g><g clip-path="url(#00f6f904f8)"><path fill="#fbcf00" d="M 106.617188 273.414062 C 106.625 273.53125 106.582031 275.25 106.582031 275.25 L 107.28125 275.125 C 107.28125 275.125 106.65625 273.535156 106.621094 273.414062 L 106.617188 273.414062 " fill-opacity="1" fill-rule="nonzero"/></g><path fill="#fbcf00" d="M 195.832031 225.242188 C 196.007812 225.273438 196.175781 225.191406 196.242188 225.054688 C 196.171875 225.25 196.03125 225.558594 195.796875 225.742188 L 196.480469 225.863281 C 196.320312 225.605469 196.292969 225.269531 196.292969 225.0625 C 196.308594 225.214844 196.4375 225.347656 196.613281 225.378906 C 196.757812 225.40625 196.898438 225.355469 196.980469 225.257812 C 197.109375 225.109375 197.046875 224.890625 196.988281 224.71875 C 196.910156 224.484375 196.800781 224.257812 196.679688 224.035156 C 196.667969 224.007812 196.53125 223.796875 196.503906 223.726562 C 196.453125 223.78125 196.253906 223.933594 196.230469 223.953125 C 196.042969 224.125 195.859375 224.300781 195.707031 224.496094 C 195.59375 224.632812 195.460938 224.816406 195.53125 225.003906 C 195.574219 225.121094 195.6875 225.21875 195.832031 225.242188 " fill-opacity="1" fill-rule="nonzero"/><path fill="#fbcf00" d="M 146.332031 261.84375 L 136.183594 244.304688 L 136.230469 244.585938 L 136.011719 244.402344 L 146.210938 262.023438 C 146.238281 262.070312 146.300781 262.085938 146.34375 262.058594 L 158.964844 254.792969 L 158.832031 254.644531 L 146.332031 261.84375 " fill-opacity="1" fill-rule="nonzero"/><path fill="#fbcf00" d="M 197.160156 219.953125 L 197.167969 219.953125 C 197.15625 220.070312 197.199219 221.6875 197.199219 221.6875 L 196.539062 221.570312 C 196.539062 221.570312 197.132812 220.058594 197.160156 219.953125 Z M 195.570312 223.027344 L 196.070312 223.117188 C 196.082031 223.117188 196.09375 223.113281 196.09375 223.101562 L 196.113281 223 C 196.113281 222.992188 196.105469 222.980469 196.09375 222.976562 L 195.980469 222.957031 L 196.390625 221.953125 L 197.207031 222.097656 L 197.261719 223.183594 L 197.144531 223.164062 C 197.132812 223.160156 197.121094 223.167969 197.121094 223.179688 L 197.101562 223.277344 C 197.101562 223.289062 197.109375 223.296875 197.117188 223.300781 L 197.621094 223.390625 C 197.628906 223.390625 197.640625 223.382812 197.644531 223.371094 L 197.660156 223.273438 C 197.664062 223.261719 197.65625 223.253906 197.644531 223.25 L 197.523438 223.230469 L 197.402344 219.347656 L 197.15625 219.304688 L 195.714844 222.910156 L 195.59375 222.890625 C 195.582031 222.886719 195.574219 222.894531 195.570312 222.90625 L 195.554688 223.003906 C 195.550781 223.015625 195.558594 223.027344 195.570312 223.027344 " fill-opacity="1" fill-rule="nonzero"/><path fill="#fbcf00" d="M 134.21875 241.109375 C 134.296875 241.542969 134.253906 241.976562 134.074219 242.40625 C 134.542969 242.472656 134.9375 242.652344 135.277344 242.933594 C 135.199219 242.5 135.242188 242.066406 135.421875 241.632812 C 134.953125 241.574219 134.558594 241.390625 134.21875 241.109375 " fill-opacity="1" fill-rule="nonzero"/><path fill="#fbcf00" d="M 203.335938 237.320312 C 203.808594 237.40625 204.265625 237.242188 204.535156 236.925781 C 204.960938 236.433594 204.757812 235.714844 204.566406 235.15625 C 204.304688 234.382812 203.941406 233.636719 203.550781 232.902344 C 203.503906 232.816406 203.070312 232.125 202.96875 231.894531 C 202.800781 232.078125 202.152344 232.578125 202.078125 232.644531 C 201.460938 233.199219 200.859375 233.777344 200.351562 234.414062 C 199.980469 234.875 199.542969 235.480469 199.773438 236.089844 C 199.921875 236.476562 200.292969 236.785156 200.765625 236.871094 C 201.34375 236.972656 201.890625 236.703125 202.113281 236.253906 C 201.882812 236.890625 201.421875 237.902344 200.644531 238.511719 L 202.886719 238.90625 C 202.363281 238.066406 202.277344 236.957031 202.28125 236.277344 C 202.332031 236.78125 202.753906 237.21875 203.335938 237.320312 " fill-opacity="1" fill-rule="nonzero"/><path fill="#fbcf00" d="M 192.421875 247.375 L 196.121094 226.457031 L 195.925781 226.425781 L 192.210938 247.4375 C 192.203125 247.492188 192.238281 247.542969 192.292969 247.550781 L 206.644531 250.074219 L 206.636719 249.875 L 192.421875 247.375 " fill-opacity="1" fill-rule="nonzero"/><path fill="#fbcf00" d="M 164.015625 228.457031 C 163.792969 228.265625 163.667969 227.9375 163.609375 227.757812 C 163.699219 227.957031 163.972656 228.136719 164.171875 228.171875 C 164.429688 228.214844 164.671875 228.046875 164.71875 227.789062 C 164.765625 227.53125 164.59375 227.289062 164.335938 227.242188 C 164.191406 227.21875 163.980469 227.25 163.820312 227.332031 C 163.902344 227.171875 163.933594 226.960938 163.90625 226.816406 C 163.863281 226.5625 163.617188 226.390625 163.359375 226.433594 C 163.105469 226.480469 162.933594 226.722656 162.976562 226.980469 C 163.003906 227.125 163.105469 227.308594 163.238281 227.433594 C 163.058594 227.414062 162.851562 227.453125 162.722656 227.527344 C 162.496094 227.65625 162.417969 227.945312 162.550781 228.171875 C 162.679688 228.394531 162.96875 228.472656 163.195312 228.34375 C 163.371094 228.242188 163.566406 227.980469 163.582031 227.765625 C 163.589844 227.953125 163.582031 228.304688 163.4375 228.558594 L 164.015625 228.457031 " fill-opacity="1" fill-rule="nonzero"/><path fill="#fbcf00" d="M 174.902344 237.597656 C 175.742188 237.742188 176.546875 237.183594 176.695312 236.339844 C 176.84375 235.5 176.28125 234.699219 175.4375 234.550781 C 174.957031 234.46875 174.273438 234.574219 173.746094 234.839844 C 174.007812 234.308594 174.117188 233.628906 174.03125 233.148438 C 173.882812 232.308594 173.078125 231.746094 172.238281 231.894531 C 171.394531 232.042969 170.832031 232.84375 170.980469 233.6875 C 171.066406 234.164062 171.398438 234.769531 171.828125 235.175781 C 171.242188 235.109375 170.5625 235.242188 170.140625 235.484375 C 169.398438 235.910156 169.144531 236.855469 169.570312 237.59375 C 170 238.335938 170.945312 238.585938 171.6875 238.160156 C 172.265625 237.828125 172.90625 236.976562 172.960938 236.265625 C 172.984375 236.878906 172.960938 238.03125 172.492188 238.875 L 174.390625 238.542969 C 173.660156 237.90625 173.242188 236.832031 173.054688 236.246094 C 173.347656 236.894531 174.242188 237.480469 174.902344 237.597656 " fill-opacity="1" fill-rule="nonzero"/><path fill="#fbcf00" d="M 178.046875 220.5625 L 181.742188 241.472656 L 181.933594 241.4375 L 178.222656 220.433594 C 178.210938 220.378906 178.160156 220.347656 178.109375 220.355469 L 163.757812 222.878906 L 163.832031 223.0625 L 178.046875 220.5625 " fill-opacity="1" fill-rule="nonzero"/><path fill="#fbcf00" d="M 182.992188 247.949219 L 182.988281 247.949219 C 182.957031 247.835938 182.363281 246.332031 182.363281 246.332031 L 183.027344 246.214844 C 183.027344 246.214844 182.984375 247.839844 182.992188 247.949219 Z M 183.433594 244.515625 L 182.933594 244.605469 C 182.921875 244.605469 182.914062 244.617188 182.917969 244.628906 L 182.933594 244.726562 C 182.9375 244.738281 182.949219 244.746094 182.960938 244.742188 L 183.074219 244.722656 L 183.035156 245.808594 L 182.21875 245.953125 L 181.792969 244.949219 L 181.910156 244.925781 C 181.921875 244.925781 181.929688 244.914062 181.925781 244.902344 L 181.910156 244.804688 C 181.90625 244.796875 181.898438 244.789062 181.886719 244.789062 L 181.386719 244.875 C 181.375 244.878906 181.367188 244.890625 181.367188 244.902344 L 181.386719 245 C 181.386719 245.011719 181.398438 245.015625 181.410156 245.015625 L 181.53125 244.996094 L 182.972656 248.601562 L 183.222656 248.558594 L 183.339844 244.675781 L 183.460938 244.65625 C 183.472656 244.652344 183.476562 244.644531 183.476562 244.632812 L 183.457031 244.53125 C 183.457031 244.523438 183.445312 244.515625 183.433594 244.515625 " fill-opacity="1" fill-rule="nonzero"/><path fill="#fbcf00" d="M 181.660156 242.144531 C 181.882812 242.335938 182.011719 242.667969 182.066406 242.84375 C 181.976562 242.644531 181.707031 242.46875 181.507812 242.433594 C 181.25 242.390625 181.003906 242.558594 180.960938 242.816406 C 180.914062 243.070312 181.085938 243.316406 181.339844 243.359375 C 181.488281 243.386719 181.695312 243.351562 181.859375 243.273438 C 181.777344 243.433594 181.746094 243.640625 181.769531 243.789062 C 181.816406 244.042969 182.058594 244.214844 182.316406 244.167969 C 182.574219 244.125 182.746094 243.878906 182.699219 243.625 C 182.671875 243.476562 182.570312 243.292969 182.441406 243.171875 C 182.621094 243.191406 182.828125 243.152344 182.957031 243.078125 C 183.179688 242.945312 183.257812 242.660156 183.128906 242.433594 C 182.996094 242.207031 182.710938 242.132812 182.484375 242.261719 C 182.308594 242.363281 182.113281 242.621094 182.097656 242.839844 C 182.089844 242.652344 182.097656 242.300781 182.238281 242.042969 L 181.660156 242.144531 " fill-opacity="1" fill-rule="nonzero"/><path fill="#fbcf00" d="M 167.632812 250.039062 L 163.9375 229.132812 L 163.746094 229.167969 L 167.457031 250.171875 C 167.46875 250.222656 167.519531 250.257812 167.570312 250.25 L 181.921875 247.726562 L 181.847656 247.539062 L 167.632812 250.039062 " fill-opacity="1" fill-rule="nonzero"/><path fill="#fbcf00" d="M 162.761719 225.976562 L 162.742188 225.878906 C 162.742188 225.867188 162.730469 225.859375 162.71875 225.859375 L 162.605469 225.878906 L 162.644531 224.796875 L 163.460938 224.652344 L 163.882812 225.65625 L 163.765625 225.675781 C 163.757812 225.679688 163.75 225.6875 163.75 225.699219 L 163.769531 225.800781 C 163.769531 225.808594 163.78125 225.816406 163.792969 225.8125 L 164.292969 225.726562 C 164.304688 225.726562 164.308594 225.714844 164.308594 225.703125 L 164.289062 225.605469 C 164.289062 225.59375 164.277344 225.585938 164.269531 225.589844 L 164.148438 225.609375 L 162.703125 222.003906 L 162.457031 222.046875 L 162.339844 225.929688 L 162.21875 225.949219 C 162.207031 225.949219 162.199219 225.960938 162.203125 225.972656 L 162.21875 226.070312 C 162.222656 226.082031 162.230469 226.089844 162.242188 226.085938 L 162.742188 226 C 162.753906 225.996094 162.761719 225.988281 162.761719 225.976562 " fill-opacity="1" fill-rule="nonzero"/><path fill="#fbcf00" d="M 207.574219 250.652344 L 207.566406 250.652344 C 207.578125 250.53125 207.535156 248.917969 207.535156 248.917969 L 208.199219 249.035156 C 208.199219 249.035156 207.601562 250.546875 207.574219 250.652344 Z M 209.164062 247.574219 L 208.664062 247.488281 C 208.652344 247.488281 208.640625 247.492188 208.640625 247.503906 L 208.625 247.601562 C 208.621094 247.613281 208.628906 247.625 208.640625 247.628906 L 208.753906 247.648438 L 208.34375 248.652344 L 207.527344 248.507812 L 207.476562 247.421875 L 207.589844 247.441406 C 207.601562 247.445312 207.613281 247.4375 207.613281 247.425781 L 207.632812 247.328125 C 207.632812 247.316406 207.628906 247.304688 207.617188 247.304688 L 207.117188 247.214844 C 207.105469 247.214844 207.09375 247.222656 207.09375 247.234375 L 207.074219 247.332031 C 207.074219 247.34375 207.078125 247.351562 207.089844 247.355469 L 207.210938 247.375 L 207.332031 251.257812 L 207.578125 251.300781 L 209.019531 247.695312 L 209.140625 247.714844 C 209.152344 247.714844 209.160156 247.707031 209.164062 247.699219 L 209.179688 247.601562 C 209.183594 247.589844 209.175781 247.578125 209.164062 247.574219 " fill-opacity="1" fill-rule="nonzero"/><path fill="#fbcf00" d="M 158.125 251.324219 C 158.046875 250.890625 158.089844 250.457031 158.265625 250.023438 C 157.800781 249.960938 157.402344 249.78125 157.066406 249.5 C 157.144531 249.933594 157.101562 250.363281 156.921875 250.796875 C 157.390625 250.859375 157.785156 251.039062 158.125 251.324219 " fill-opacity="1" fill-rule="nonzero"/><path fill="#fbcf00" d="M 228.664062 262.414062 L 228.660156 262.414062 C 228.707031 262.308594 229.222656 260.773438 229.222656 260.773438 L 229.804688 261.109375 C 229.804688 261.109375 228.726562 262.328125 228.664062 262.414062 Z M 230.773438 259.816406 C 230.765625 259.808594 230.75 259.8125 230.746094 259.824219 L 230.695312 259.910156 C 230.691406 259.917969 230.695312 259.929688 230.703125 259.9375 L 230.804688 259.996094 L 230.074219 260.800781 L 229.355469 260.386719 L 229.679688 259.347656 L 229.78125 259.40625 C 229.789062 259.414062 229.804688 259.410156 229.808594 259.398438 L 229.859375 259.3125 C 229.863281 259.300781 229.859375 259.289062 229.851562 259.285156 L 229.414062 259.03125 C 229.402344 259.027344 229.390625 259.027344 229.382812 259.039062 L 229.332031 259.125 C 229.328125 259.136719 229.332031 259.148438 229.339844 259.152344 L 229.445312 259.214844 L 228.230469 262.902344 L 228.445312 263.027344 L 231.039062 260.132812 L 231.144531 260.191406 C 231.152344 260.195312 231.164062 260.191406 231.171875 260.183594 L 231.222656 260.097656 C 231.226562 260.085938 231.222656 260.074219 231.214844 260.070312 L 230.773438 259.816406 " fill-opacity="1" fill-rule="nonzero"/><path fill="#fbcf00" d="M 226.003906 236.109375 L 225.84375 236.1875 L 225.832031 236.011719 L 215.332031 254.15625 C 215.304688 254.203125 215.320312 254.261719 215.367188 254.289062 L 227.988281 261.558594 L 228.050781 261.367188 L 215.550781 254.167969 L 226.003906 236.109375 " fill-opacity="1" fill-rule="nonzero"/><path fill="#fbcf00" d="M 146.007812 230.589844 L 156.160156 248.128906 L 156.109375 247.847656 L 156.328125 248.03125 L 146.128906 230.410156 C 146.101562 230.363281 146.042969 230.347656 145.996094 230.375 L 133.375 237.640625 L 133.511719 237.789062 L 146.007812 230.589844 " fill-opacity="1" fill-rule="nonzero"/><path fill="#fbcf00" d="M 231.632812 257.269531 C 231.542969 257.3125 231.234375 257.414062 231.195312 257.429688 C 230.890625 257.550781 230.585938 257.6875 230.304688 257.859375 C 230.105469 257.980469 229.855469 258.148438 229.859375 258.40625 C 229.863281 258.574219 229.960938 258.738281 230.125 258.835938 C 230.328125 258.953125 230.664062 258.832031 230.808594 258.691406 C 230.761719 258.886719 230.824219 259.238281 231.027344 259.355469 C 231.191406 259.449219 231.386719 259.449219 231.53125 259.367188 C 231.757812 259.242188 231.78125 258.945312 231.785156 258.710938 C 231.792969 258.382812 231.757812 258.054688 231.710938 257.726562 C 231.707031 257.6875 231.636719 257.367188 231.632812 257.269531 " fill-opacity="1" fill-rule="nonzero"/><g clip-path="url(#4a403cc53f)"><path fill="#fbcf00" d="M 245.421875 237.992188 L 230.089844 264.484375 C 229.898438 264.8125 229.476562 264.929688 229.144531 264.738281 L 212.898438 255.382812 C 212.570312 255.191406 212.457031 254.769531 212.648438 254.441406 L 227.980469 227.949219 C 228.171875 227.617188 228.59375 227.503906 228.921875 227.695312 L 245.171875 237.050781 C 245.5 237.242188 245.613281 237.664062 245.421875 237.992188 Z M 208.820312 252.667969 L 190.347656 249.417969 C 189.972656 249.351562 189.722656 248.996094 189.789062 248.621094 L 195.113281 218.496094 C 195.179688 218.121094 195.539062 217.871094 195.914062 217.9375 L 214.386719 221.1875 C 214.761719 221.25 215.015625 221.609375 214.949219 221.984375 L 209.621094 252.109375 C 209.554688 252.484375 209.199219 252.734375 208.820312 252.667969 Z M 184.859375 249.417969 L 166.382812 252.667969 C 166.007812 252.734375 165.652344 252.484375 165.585938 252.109375 L 160.257812 221.984375 C 160.195312 221.609375 160.445312 221.25 160.820312 221.1875 L 179.292969 217.9375 C 179.667969 217.871094 180.027344 218.121094 180.09375 218.496094 L 185.417969 248.621094 C 185.484375 248.996094 185.234375 249.351562 184.859375 249.417969 Z M 162.308594 255.382812 L 146.0625 264.738281 C 145.730469 264.929688 145.308594 264.8125 145.117188 264.484375 L 129.785156 237.992188 C 129.59375 237.664062 129.707031 237.242188 130.035156 237.050781 L 146.28125 227.695312 C 146.613281 227.503906 147.035156 227.617188 147.226562 227.949219 L 162.558594 254.441406 C 162.75 254.769531 162.636719 255.191406 162.308594 255.382812 Z M 187.601562 210.917969 C 142.703125 210.917969 106.304688 225.160156 106.304688 242.730469 C 106.304688 260.300781 142.703125 274.546875 187.601562 274.546875 C 232.503906 274.546875 268.902344 260.300781 268.902344 242.730469 C 268.902344 225.160156 232.503906 210.917969 187.601562 210.917969 " fill-opacity="1" fill-rule="nonzero"/></g><path fill="#fbcf00" d="M 160.050781 254.636719 L 160.046875 254.640625 C 159.976562 254.542969 158.902344 253.332031 158.902344 253.332031 L 159.488281 252.996094 C 159.488281 252.996094 160.003906 254.539062 160.050781 254.636719 Z M 159.359375 251.382812 C 159.367188 251.375 159.371094 251.363281 159.367188 251.355469 L 159.316406 251.269531 C 159.3125 251.257812 159.296875 251.253906 159.289062 251.261719 L 158.847656 251.515625 C 158.839844 251.519531 158.835938 251.53125 158.839844 251.542969 L 158.890625 251.628906 C 158.898438 251.636719 158.910156 251.640625 158.917969 251.636719 L 159.019531 251.578125 L 159.351562 252.609375 L 158.636719 253.023438 L 157.894531 252.226562 L 157.996094 252.167969 C 158.007812 252.160156 158.007812 252.148438 158.003906 252.140625 L 157.953125 252.054688 C 157.949219 252.042969 157.9375 252.039062 157.925781 252.042969 L 157.484375 252.296875 C 157.476562 252.304688 157.472656 252.316406 157.480469 252.328125 L 157.527344 252.414062 C 157.535156 252.421875 157.546875 252.425781 157.554688 252.421875 L 157.660156 252.359375 L 160.253906 255.253906 L 160.472656 255.128906 L 159.253906 251.441406 L 159.359375 251.382812 " fill-opacity="1" fill-rule="nonzero"/><path fill="#fbcf00" d="M 242.703125 238.144531 L 230.082031 230.875 L 230.019531 231.066406 L 242.519531 238.265625 L 232.066406 256.324219 L 232.226562 256.242188 L 232.238281 256.421875 L 242.738281 238.277344 C 242.765625 238.230469 242.75 238.171875 242.703125 238.144531 " fill-opacity="1" fill-rule="nonzero"/><path fill="#fbcf00" d="M 208.902344 245.363281 C 208.726562 245.332031 208.558594 245.414062 208.492188 245.550781 C 208.5625 245.359375 208.703125 245.046875 208.941406 244.863281 L 208.257812 244.742188 C 208.417969 244.996094 208.441406 245.335938 208.441406 245.542969 C 208.425781 245.390625 208.296875 245.257812 208.121094 245.226562 C 207.976562 245.199219 207.839844 245.25 207.753906 245.347656 C 207.625 245.496094 207.6875 245.714844 207.746094 245.882812 C 207.824219 246.121094 207.933594 246.347656 208.054688 246.570312 C 208.070312 246.597656 208.203125 246.808594 208.230469 246.878906 C 208.285156 246.824219 208.480469 246.667969 208.503906 246.648438 C 208.691406 246.480469 208.875 246.304688 209.03125 246.109375 C 209.144531 245.96875 209.273438 245.785156 209.207031 245.601562 C 209.160156 245.484375 209.046875 245.386719 208.902344 245.363281 " fill-opacity="1" fill-rule="nonzero"/><path fill="#fbcf00" d="M 144.4375 243.222656 C 144.691406 244.640625 144.554688 246.0625 143.964844 247.488281 C 145.496094 247.691406 146.796875 248.28125 147.90625 249.210938 C 147.652344 247.792969 147.789062 246.371094 148.378906 244.945312 C 146.847656 244.742188 145.542969 244.152344 144.4375 243.222656 " fill-opacity="1" fill-rule="nonzero"/><path fill="#fbcf00" d="M 212.441406 223.054688 L 198.09375 220.53125 L 198.097656 220.726562 L 212.3125 223.230469 L 208.617188 244.144531 L 208.808594 244.179688 L 212.523438 223.167969 C 212.53125 223.113281 212.496094 223.0625 212.441406 223.054688 " fill-opacity="1" fill-rule="nonzero"/><path fill="#fbcf00" d="M 229.40625 230.015625 L 229.410156 230.019531 C 229.359375 230.125 228.847656 231.660156 228.847656 231.660156 L 228.265625 231.324219 C 228.265625 231.324219 229.34375 230.105469 229.40625 230.015625 Z M 227.296875 232.617188 C 227.304688 232.621094 227.320312 232.621094 227.324219 232.609375 L 227.375 232.523438 C 227.378906 232.511719 227.375 232.5 227.367188 232.496094 L 227.265625 232.4375 L 227.996094 231.632812 L 228.714844 232.046875 L 228.390625 233.085938 L 228.289062 233.027344 C 228.277344 233.019531 228.265625 233.023438 228.261719 233.035156 L 228.210938 233.121094 C 228.203125 233.128906 228.207031 233.144531 228.21875 233.148438 L 228.65625 233.402344 C 228.667969 233.40625 228.679688 233.402344 228.6875 233.394531 L 228.734375 233.308594 C 228.742188 233.296875 228.738281 233.285156 228.726562 233.28125 L 228.625 233.21875 L 229.839844 229.53125 L 229.625 229.40625 L 227.03125 232.300781 L 226.925781 232.242188 C 226.917969 232.234375 226.90625 232.238281 226.898438 232.25 L 226.847656 232.335938 C 226.84375 232.347656 226.847656 232.359375 226.855469 232.363281 L 227.296875 232.617188 " fill-opacity="1" fill-rule="nonzero"/><path fill="#fbcf00" d="M 132.855469 239.4375 C 132.855469 239.4375 132.339844 237.894531 132.292969 237.796875 L 132.296875 237.792969 C 132.367188 237.890625 133.441406 239.097656 133.441406 239.097656 Z M 134.449219 240.207031 L 134.347656 240.265625 C 134.335938 240.273438 134.332031 240.285156 134.339844 240.292969 L 134.390625 240.378906 C 134.394531 240.390625 134.40625 240.394531 134.417969 240.386719 L 134.855469 240.136719 C 134.867188 240.128906 134.871094 240.117188 134.863281 240.105469 L 134.816406 240.019531 C 134.808594 240.011719 134.796875 240.007812 134.785156 240.011719 L 134.683594 240.074219 L 132.085938 237.175781 L 131.871094 237.304688 L 133.089844 240.988281 L 132.984375 241.050781 C 132.976562 241.058594 132.972656 241.070312 132.976562 241.078125 L 133.027344 241.164062 C 133.03125 241.175781 133.046875 241.179688 133.054688 241.171875 L 133.496094 240.917969 C 133.503906 240.914062 133.507812 240.902344 133.503906 240.890625 L 133.453125 240.804688 C 133.445312 240.792969 133.433594 240.792969 133.425781 240.796875 L 133.324219 240.855469 L 132.992188 239.820312 L 133.707031 239.410156 L 134.449219 240.207031 " fill-opacity="1" fill-rule="nonzero"/><path fill="#fbcf00" d="M 226.4375 235.164062 C 226.527344 235.117188 226.835938 235.019531 226.875 235.003906 C 227.179688 234.878906 227.484375 234.746094 227.765625 234.574219 C 227.964844 234.453125 228.210938 234.285156 228.207031 234.027344 C 228.207031 233.859375 228.109375 233.695312 227.945312 233.597656 C 227.742188 233.480469 227.40625 233.601562 227.257812 233.742188 C 227.308594 233.546875 227.246094 233.195312 227.042969 233.078125 C 226.875 232.984375 226.683594 232.984375 226.539062 233.0625 C 226.3125 233.191406 226.289062 233.488281 226.285156 233.722656 C 226.277344 234.046875 226.308594 234.378906 226.355469 234.707031 C 226.363281 234.746094 226.429688 235.0625 226.4375 235.164062 " fill-opacity="1" fill-rule="nonzero"/><path fill="#fbcf00" d="M 229.289062 242.371094 C 228.742188 242.054688 228.109375 242.054688 227.632812 242.320312 C 226.886719 242.738281 226.820312 243.710938 226.800781 244.484375 C 226.773438 245.550781 226.886719 246.636719 227.039062 247.710938 C 227.058594 247.839844 227.28125 248.886719 227.300781 249.210938 C 227.59375 249.066406 228.617188 248.738281 228.734375 248.6875 C 229.746094 248.285156 230.742188 247.839844 231.65625 247.28125 C 232.320312 246.878906 233.128906 246.332031 233.117188 245.476562 C 233.113281 244.9375 232.792969 244.386719 232.246094 244.074219 C 231.582031 243.6875 230.480469 244.089844 230.003906 244.542969 L 230 244.550781 C 230.160156 243.90625 229.957031 242.753906 229.289062 242.371094 " fill-opacity="1" fill-rule="nonzero"/></svg>